<?xml version="1.0" encoding="UTF-8" standalone="no"?>
<svg
   width="195"
   height="29"
   viewBox="0 0 195 29"
   fill="none"
   version="1.1"
   id="svg78"
   sodipodi:docname="Logo-dropla-black-1.svg"
   inkscape:version="1.2.2 (b0a84865, 2022-12-01)"
   xmlns:inkscape="http://www.inkscape.org/namespaces/inkscape"
   xmlns:sodipodi="http://sodipodi.sourceforge.net/DTD/sodipodi-0.dtd"
   xmlns="http://www.w3.org/2000/svg"
   xmlns:svg="http://www.w3.org/2000/svg">
  <defs
     id="defs82" />
  <sodipodi:namedview
     id="namedview80"
     pagecolor="#ffffff"
     bordercolor="#000000"
     borderopacity="0.25"
     inkscape:showpageshadow="2"
     inkscape:pageopacity="0.0"
     inkscape:pagecheckerboard="0"
     inkscape:deskcolor="#d1d1d1"
     showgrid="false"
     inkscape:zoom="7.7897436"
     inkscape:cx="84.213298"
     inkscape:cy="14.570441"
     inkscape:window-width="1663"
     inkscape:window-height="975"
     inkscape:window-x="0"
     inkscape:window-y="349"
     inkscape:window-maximized="0"
     inkscape:current-layer="svg78" />
  <path
     d="M0 0.95845H21.1257L27.858 6.57511V22.4249L21.1257 28.0415H0V0.95845ZM8.20264 22.8865H17.566L19.8875 20.963V8.11392L17.566 6.19041H8.20264V22.8865Z"
     fill="black"
     id="path66" />
  <path
     d="M53.745 28.08H62.025L57.0724 17.8469L60.7868 14.7693V4.99783L55.8343 0.919983H33.8574V28.08H42.0601V21.4631L49.5663 18.9241L53.745 28.08ZM42.0601 6.15194H51.2687L52.8164 7.45993V12.2302L42.0601 15.8465V6.15194Z"
     fill="black"
     id="path68" />
  <path
     d="M68.0254 24.0406V5.0363L72.9005 0.95845H91.8595L96.7346 5.0363V23.9637L91.8595 28.0415H72.9005L68.0254 24.0406ZM77.8531 22.8865H87.0617L88.6094 21.5785V7.4984L86.9843 6.19041H77.8531L76.3054 7.4984V21.5785L77.8531 22.8865Z"
     fill="black"
     id="path70" />
  <path
     d="M102.734 0.95845H124.324L129.2 5.0363V15.5002L124.324 19.5781H110.937V28.0415H102.734V0.95845ZM110.937 14.3461H119.759L121.306 13.0381V7.4984L119.759 6.19041H110.937V14.3461Z"
     fill="black"
     id="path72" />
  <path
     d="M135.199 28.08V0.919983H143.402V22.4633H155.861L153.771 28.08H135.199Z"
     fill="black"
     id="path74" />
  <path
     d="M184.689 0.919983H171.379L161.861 28.08H170.528L171.921 23.3866L182.91 19.6935L183.838 22.6172L185.463 28.0031H194.13L184.689 0.919983ZM175.249 12.6149L177.261 6.075H178.808L181.362 14.5385L173.856 17.0775L175.249 12.6149Z"
     fill="black"
     id="path76" />
</svg>
