0
SECTION
2
HEADER
9
$ACADVER
1
AC1021
9
$LASTSAVEDBY
1
@tarikjabiri/dxf
9
$HANDSEED
5
3C
9
$INSUNITS
70
0
9
$CLAYER
8
0
9
$VIEWCTR
10
0
20
0
0
ENDSEC
0
SECTION
2
CLASSES
0
ENDSEC
0
SECTION
2
TABLES
0
TABLE
2
VPORT
5
1
330
0
100
AcDbSymbolTable
70
1
0
VPORT
5
19
330
1
100
AcDbSymbolTableRecord
100
AcDbViewportTableRecord
2
*Active
70
0
10
0
20
0
11
1
21
1
12
0
22
0
13
0
23
0
14
10
24
10
15
10
25
10
16
0
26
0
36
1
17
0
27
0
37
0
40
85.79
41
2
42
50
43
0
44
0
50
0
51
0
71
0
72
100
73
1
74
3
75
0
76
1
77
0
78
0
281
0
65
1
110
0
120
0
130
0
111
1
121
0
131
0
112
0
122
1
132
0
79
0
146
0
348
10020
60
7
61
5
292
1
282
1
141
0
142
0
63
250
421
3358443
0
ENDTAB
0
TABLE
2
LTYPE
5
2
330
0
100
AcDbSymbolTable
70
3
0
LTYPE
5
12
330
2
100
AcDbSymbolTableRecord
100
AcDbLinetypeTableRecord
2
ByBlock
70
0
3

72
65
73
0
40
0
0
LTYPE
5
13
330
2
100
AcDbSymbolTableRecord
100
AcDbLinetypeTableRecord
2
ByLayer
70
0
3

72
65
73
0
40
0
0
LTYPE
5
14
330
2
100
AcDbSymbolTableRecord
100
AcDbLinetypeTableRecord
2
Continuous
70
0
3
Solid line
72
65
73
0
40
0
0
ENDTAB
0
TABLE
2
LAYER
5
3
330
0
100
AcDbSymbolTable
70
2
0
LAYER
5
15
330
3
100
AcDbSymbolTableRecord
100
AcDbLayerTableRecord
2
0
70
0
62
7
6
Continuous
370
0
390
0
0
LAYER
5
1A
330
3
100
AcDbSymbolTableRecord
100
AcDbLayerTableRecord
2
Splines
70
0
62
1
6
Continuous
370
0
390
0
0
ENDTAB
0
TABLE
2
STYLE
5
4
330
0
100
AcDbSymbolTable
70
1
0
STYLE
5
16
330
4
100
AcDbSymbolTableRecord
100
AcDbTextStyleTableRecord
2
Standard
70
0
40
0
41
1
50
0
71
0
42
1
3
txt
4

0
ENDTAB
0
TABLE
2
VIEW
5
5
330
0
100
AcDbSymbolTable
70
0
0
ENDTAB
0
TABLE
2
UCS
5
6
330
0
100
AcDbSymbolTable
70
0
0
ENDTAB
0
TABLE
2
APPID
5
7
330
0
100
AcDbSymbolTable
70
1
0
APPID
5
17
330
7
100
AcDbSymbolTableRecord
100
AcDbRegAppTableRecord
2
ACAD
70
0
0
ENDTAB
0
TABLE
2
DIMSTYLE
5
8
330
0
100
AcDbSymbolTable
70
1
100
AcDbDimStyleTable
0
DIMSTYLE
105
18
330
8
100
AcDbSymbolTableRecord
100
AcDbDimStyleTableRecord
2
Standard
70
0
340
16
0
ENDTAB
0
TABLE
2
BLOCK_RECORD
5
9
330
0
100
AcDbSymbolTable
70
2
0
BLOCK_RECORD
5
C
330
9
100
AcDbSymbolTableRecord
100
AcDbBlockTableRecord
2
*Model_Space
70
0
280
1
281
0
0
BLOCK_RECORD
5
F
330
9
100
AcDbSymbolTableRecord
100
AcDbBlockTableRecord
2
*Paper_Space
70
0
280
1
281
0
0
ENDTAB
0
ENDSEC
0
SECTION
2
BLOCKS
0
BLOCK
5
D
330
C
100
AcDbEntity
8
0
100
AcDbBlockBegin
2
*Model_Space
70
0
10
0
20
0
30
0
3
*Model_Space
1

0
ENDBLK
5
E
100
AcDbEntity
8
0
100
AcDbBlockEnd
0
BLOCK
5
10
330
F
100
AcDbEntity
8
0
100
AcDbBlockBegin
2
*Paper_Space
70
0
10
0
20
0
30
0
3
*Paper_Space
1

0
ENDBLK
5
11
100
AcDbEntity
8
0
100
AcDbBlockEnd
0
ENDSEC
0
SECTION
2
ENTITIES
0
SPLINE
5
1B
330
C
100
AcDbEntity
8
0
100
AcDbSpline
70
8
71
3
72
2004
73
2000
74
0
42
0.0000001
43
0.0000001
42
0.0000000001
40
0
40
0
40
0
40
0
40
1
40
2
40
3
40
4
40
5
40
6
40
7
40
8
40
9
40
10
40
11
40
12
40
13
40
14
40
15
40
16
40
17
40
18
40
19
40
20
40
21
40
22
40
23
40
24
40
25
40
26
40
27
40
28
40
29
40
30
40
31
40
32
40
33
40
34
40
35
40
36
40
37
40
38
40
39
40
40
40
41
40
42
40
43
40
44
40
45
40
46
40
47
40
48
40
49
40
50
40
51
40
52
40
53
40
54
40
55
40
56
40
57
40
58
40
59
40
60
40
61
40
62
40
63
40
64
40
65
40
66
40
67
40
68
40
69
40
70
40
71
40
72
40
73
40
74
40
75
40
76
40
77
40
78
40
79
40
80
40
81
40
82
40
83
40
84
40
85
40
86
40
87
40
88
40
89
40
90
40
91
40
92
40
93
40
94
40
95
40
96
40
97
40
98
40
99
40
100
40
101
40
102
40
103
40
104
40
105
40
106
40
107
40
108
40
109
40
110
40
111
40
112
40
113
40
114
40
115
40
116
40
117
40
118
40
119
40
120
40
121
40
122
40
123
40
124
40
125
40
126
40
127
40
128
40
129
40
130
40
131
40
132
40
133
40
134
40
135
40
136
40
137
40
138
40
139
40
140
40
141
40
142
40
143
40
144
40
145
40
146
40
147
40
148
40
149
40
150
40
151
40
152
40
153
40
154
40
155
40
156
40
157
40
158
40
159
40
160
40
161
40
162
40
163
40
164
40
165
40
166
40
167
40
168
40
169
40
170
40
171
40
172
40
173
40
174
40
175
40
176
40
177
40
178
40
179
40
180
40
181
40
182
40
183
40
184
40
185
40
186
40
187
40
188
40
189
40
190
40
191
40
192
40
193
40
194
40
195
40
196
40
197
40
198
40
199
40
200
40
201
40
202
40
203
40
204
40
205
40
206
40
207
40
208
40
209
40
210
40
211
40
212
40
213
40
214
40
215
40
216
40
217
40
218
40
219
40
220
40
221
40
222
40
223
40
224
40
225
40
226
40
227
40
228
40
229
40
230
40
231
40
232
40
233
40
234
40
235
40
236
40
237
40
238
40
239
40
240
40
241
40
242
40
243
40
244
40
245
40
246
40
247
40
248
40
249
40
250
40
251
40
252
40
253
40
254
40
255
40
256
40
257
40
258
40
259
40
260
40
261
40
262
40
263
40
264
40
265
40
266
40
267
40
268
40
269
40
270
40
271
40
272
40
273
40
274
40
275
40
276
40
277
40
278
40
279
40
280
40
281
40
282
40
283
40
284
40
285
40
286
40
287
40
288
40
289
40
290
40
291
40
292
40
293
40
294
40
295
40
296
40
297
40
298
40
299
40
300
40
301
40
302
40
303
40
304
40
305
40
306
40
307
40
308
40
309
40
310
40
311
40
312
40
313
40
314
40
315
40
316
40
317
40
318
40
319
40
320
40
321
40
322
40
323
40
324
40
325
40
326
40
327
40
328
40
329
40
330
40
331
40
332
40
333
40
334
40
335
40
336
40
337
40
338
40
339
40
340
40
341
40
342
40
343
40
344
40
345
40
346
40
347
40
348
40
349
40
350
40
351
40
352
40
353
40
354
40
355
40
356
40
357
40
358
40
359
40
360
40
361
40
362
40
363
40
364
40
365
40
366
40
367
40
368
40
369
40
370
40
371
40
372
40
373
40
374
40
375
40
376
40
377
40
378
40
379
40
380
40
381
40
382
40
383
40
384
40
385
40
386
40
387
40
388
40
389
40
390
40
391
40
392
40
393
40
394
40
395
40
396
40
397
40
398
40
399
40
400
40
401
40
402
40
403
40
404
40
405
40
406
40
407
40
408
40
409
40
410
40
411
40
412
40
413
40
414
40
415
40
416
40
417
40
418
40
419
40
420
40
421
40
422
40
423
40
424
40
425
40
426
40
427
40
428
40
429
40
430
40
431
40
432
40
433
40
434
40
435
40
436
40
437
40
438
40
439
40
440
40
441
40
442
40
443
40
444
40
445
40
446
40
447
40
448
40
449
40
450
40
451
40
452
40
453
40
454
40
455
40
456
40
457
40
458
40
459
40
460
40
461
40
462
40
463
40
464
40
465
40
466
40
467
40
468
40
469
40
470
40
471
40
472
40
473
40
474
40
475
40
476
40
477
40
478
40
479
40
480
40
481
40
482
40
483
40
484
40
485
40
486
40
487
40
488
40
489
40
490
40
491
40
492
40
493
40
494
40
495
40
496
40
497
40
498
40
499
40
500
40
501
40
502
40
503
40
504
40
505
40
506
40
507
40
508
40
509
40
510
40
511
40
512
40
513
40
514
40
515
40
516
40
517
40
518
40
519
40
520
40
521
40
522
40
523
40
524
40
525
40
526
40
527
40
528
40
529
40
530
40
531
40
532
40
533
40
534
40
535
40
536
40
537
40
538
40
539
40
540
40
541
40
542
40
543
40
544
40
545
40
546
40
547
40
548
40
549
40
550
40
551
40
552
40
553
40
554
40
555
40
556
40
557
40
558
40
559
40
560
40
561
40
562
40
563
40
564
40
565
40
566
40
567
40
568
40
569
40
570
40
571
40
572
40
573
40
574
40
575
40
576
40
577
40
578
40
579
40
580
40
581
40
582
40
583
40
584
40
585
40
586
40
587
40
588
40
589
40
590
40
591
40
592
40
593
40
594
40
595
40
596
40
597
40
598
40
599
40
600
40
601
40
602
40
603
40
604
40
605
40
606
40
607
40
608
40
609
40
610
40
611
40
612
40
613
40
614
40
615
40
616
40
617
40
618
40
619
40
620
40
621
40
622
40
623
40
624
40
625
40
626
40
627
40
628
40
629
40
630
40
631
40
632
40
633
40
634
40
635
40
636
40
637
40
638
40
639
40
640
40
641
40
642
40
643
40
644
40
645
40
646
40
647
40
648
40
649
40
650
40
651
40
652
40
653
40
654
40
655
40
656
40
657
40
658
40
659
40
660
40
661
40
662
40
663
40
664
40
665
40
666
40
667
40
668
40
669
40
670
40
671
40
672
40
673
40
674
40
675
40
676
40
677
40
678
40
679
40
680
40
681
40
682
40
683
40
684
40
685
40
686
40
687
40
688
40
689
40
690
40
691
40
692
40
693
40
694
40
695
40
696
40
697
40
698
40
699
40
700
40
701
40
702
40
703
40
704
40
705
40
706
40
707
40
708
40
709
40
710
40
711
40
712
40
713
40
714
40
715
40
716
40
717
40
718
40
719
40
720
40
721
40
722
40
723
40
724
40
725
40
726
40
727
40
728
40
729
40
730
40
731
40
732
40
733
40
734
40
735
40
736
40
737
40
738
40
739
40
740
40
741
40
742
40
743
40
744
40
745
40
746
40
747
40
748
40
749
40
750
40
751
40
752
40
753
40
754
40
755
40
756
40
757
40
758
40
759
40
760
40
761
40
762
40
763
40
764
40
765
40
766
40
767
40
768
40
769
40
770
40
771
40
772
40
773
40
774
40
775
40
776
40
777
40
778
40
779
40
780
40
781
40
782
40
783
40
784
40
785
40
786
40
787
40
788
40
789
40
790
40
791
40
792
40
793
40
794
40
795
40
796
40
797
40
798
40
799
40
800
40
801
40
802
40
803
40
804
40
805
40
806
40
807
40
808
40
809
40
810
40
811
40
812
40
813
40
814
40
815
40
816
40
817
40
818
40
819
40
820
40
821
40
822
40
823
40
824
40
825
40
826
40
827
40
828
40
829
40
830
40
831
40
832
40
833
40
834
40
835
40
836
40
837
40
838
40
839
40
840
40
841
40
842
40
843
40
844
40
845
40
846
40
847
40
848
40
849
40
850
40
851
40
852
40
853
40
854
40
855
40
856
40
857
40
858
40
859
40
860
40
861
40
862
40
863
40
864
40
865
40
866
40
867
40
868
40
869
40
870
40
871
40
872
40
873
40
874
40
875
40
876
40
877
40
878
40
879
40
880
40
881
40
882
40
883
40
884
40
885
40
886
40
887
40
888
40
889
40
890
40
891
40
892
40
893
40
894
40
895
40
896
40
897
40
898
40
899
40
900
40
901
40
902
40
903
40
904
40
905
40
906
40
907
40
908
40
909
40
910
40
911
40
912
40
913
40
914
40
915
40
916
40
917
40
918
40
919
40
920
40
921
40
922
40
923
40
924
40
925
40
926
40
927
40
928
40
929
40
930
40
931
40
932
40
933
40
934
40
935
40
936
40
937
40
938
40
939
40
940
40
941
40
942
40
943
40
944
40
945
40
946
40
947
40
948
40
949
40
950
40
951
40
952
40
953
40
954
40
955
40
956
40
957
40
958
40
959
40
960
40
961
40
962
40
963
40
964
40
965
40
966
40
967
40
968
40
969
40
970
40
971
40
972
40
973
40
974
40
975
40
976
40
977
40
978
40
979
40
980
40
981
40
982
40
983
40
984
40
985
40
986
40
987
40
988
40
989
40
990
40
991
40
992
40
993
40
994
40
995
40
996
40
997
40
998
40
999
40
1000
40
1001
40
1002
40
1003
40
1004
40
1005
40
1006
40
1007
40
1008
40
1009
40
1010
40
1011
40
1012
40
1013
40
1014
40
1015
40
1016
40
1017
40
1018
40
1019
40
1020
40
1021
40
1022
40
1023
40
1024
40
1025
40
1026
40
1027
40
1028
40
1029
40
1030
40
1031
40
1032
40
1033
40
1034
40
1035
40
1036
40
1037
40
1038
40
1039
40
1040
40
1041
40
1042
40
1043
40
1044
40
1045
40
1046
40
1047
40
1048
40
1049
40
1050
40
1051
40
1052
40
1053
40
1054
40
1055
40
1056
40
1057
40
1058
40
1059
40
1060
40
1061
40
1062
40
1063
40
1064
40
1065
40
1066
40
1067
40
1068
40
1069
40
1070
40
1071
40
1072
40
1073
40
1074
40
1075
40
1076
40
1077
40
1078
40
1079
40
1080
40
1081
40
1082
40
1083
40
1084
40
1085
40
1086
40
1087
40
1088
40
1089
40
1090
40
1091
40
1092
40
1093
40
1094
40
1095
40
1096
40
1097
40
1098
40
1099
40
1100
40
1101
40
1102
40
1103
40
1104
40
1105
40
1106
40
1107
40
1108
40
1109
40
1110
40
1111
40
1112
40
1113
40
1114
40
1115
40
1116
40
1117
40
1118
40
1119
40
1120
40
1121
40
1122
40
1123
40
1124
40
1125
40
1126
40
1127
40
1128
40
1129
40
1130
40
1131
40
1132
40
1133
40
1134
40
1135
40
1136
40
1137
40
1138
40
1139
40
1140
40
1141
40
1142
40
1143
40
1144
40
1145
40
1146
40
1147
40
1148
40
1149
40
1150
40
1151
40
1152
40
1153
40
1154
40
1155
40
1156
40
1157
40
1158
40
1159
40
1160
40
1161
40
1162
40
1163
40
1164
40
1165
40
1166
40
1167
40
1168
40
1169
40
1170
40
1171
40
1172
40
1173
40
1174
40
1175
40
1176
40
1177
40
1178
40
1179
40
1180
40
1181
40
1182
40
1183
40
1184
40
1185
40
1186
40
1187
40
1188
40
1189
40
1190
40
1191
40
1192
40
1193
40
1194
40
1195
40
1196
40
1197
40
1198
40
1199
40
1200
40
1201
40
1202
40
1203
40
1204
40
1205
40
1206
40
1207
40
1208
40
1209
40
1210
40
1211
40
1212
40
1213
40
1214
40
1215
40
1216
40
1217
40
1218
40
1219
40
1220
40
1221
40
1222
40
1223
40
1224
40
1225
40
1226
40
1227
40
1228
40
1229
40
1230
40
1231
40
1232
40
1233
40
1234
40
1235
40
1236
40
1237
40
1238
40
1239
40
1240
40
1241
40
1242
40
1243
40
1244
40
1245
40
1246
40
1247
40
1248
40
1249
40
1250
40
1251
40
1252
40
1253
40
1254
40
1255
40
1256
40
1257
40
1258
40
1259
40
1260
40
1261
40
1262
40
1263
40
1264
40
1265
40
1266
40
1267
40
1268
40
1269
40
1270
40
1271
40
1272
40
1273
40
1274
40
1275
40
1276
40
1277
40
1278
40
1279
40
1280
40
1281
40
1282
40
1283
40
1284
40
1285
40
1286
40
1287
40
1288
40
1289
40
1290
40
1291
40
1292
40
1293
40
1294
40
1295
40
1296
40
1297
40
1298
40
1299
40
1300
40
1301
40
1302
40
1303
40
1304
40
1305
40
1306
40
1307
40
1308
40
1309
40
1310
40
1311
40
1312
40
1313
40
1314
40
1315
40
1316
40
1317
40
1318
40
1319
40
1320
40
1321
40
1322
40
1323
40
1324
40
1325
40
1326
40
1327
40
1328
40
1329
40
1330
40
1331
40
1332
40
1333
40
1334
40
1335
40
1336
40
1337
40
1338
40
1339
40
1340
40
1341
40
1342
40
1343
40
1344
40
1345
40
1346
40
1347
40
1348
40
1349
40
1350
40
1351
40
1352
40
1353
40
1354
40
1355
40
1356
40
1357
40
1358
40
1359
40
1360
40
1361
40
1362
40
1363
40
1364
40
1365
40
1366
40
1367
40
1368
40
1369
40
1370
40
1371
40
1372
40
1373
40
1374
40
1375
40
1376
40
1377
40
1378
40
1379
40
1380
40
1381
40
1382
40
1383
40
1384
40
1385
40
1386
40
1387
40
1388
40
1389
40
1390
40
1391
40
1392
40
1393
40
1394
40
1395
40
1396
40
1397
40
1398
40
1399
40
1400
40
1401
40
1402
40
1403
40
1404
40
1405
40
1406
40
1407
40
1408
40
1409
40
1410
40
1411
40
1412
40
1413
40
1414
40
1415
40
1416
40
1417
40
1418
40
1419
40
1420
40
1421
40
1422
40
1423
40
1424
40
1425
40
1426
40
1427
40
1428
40
1429
40
1430
40
1431
40
1432
40
1433
40
1434
40
1435
40
1436
40
1437
40
1438
40
1439
40
1440
40
1441
40
1442
40
1443
40
1444
40
1445
40
1446
40
1447
40
1448
40
1449
40
1450
40
1451
40
1452
40
1453
40
1454
40
1455
40
1456
40
1457
40
1458
40
1459
40
1460
40
1461
40
1462
40
1463
40
1464
40
1465
40
1466
40
1467
40
1468
40
1469
40
1470
40
1471
40
1472
40
1473
40
1474
40
1475
40
1476
40
1477
40
1478
40
1479
40
1480
40
1481
40
1482
40
1483
40
1484
40
1485
40
1486
40
1487
40
1488
40
1489
40
1490
40
1491
40
1492
40
1493
40
1494
40
1495
40
1496
40
1497
40
1498
40
1499
40
1500
40
1501
40
1502
40
1503
40
1504
40
1505
40
1506
40
1507
40
1508
40
1509
40
1510
40
1511
40
1512
40
1513
40
1514
40
1515
40
1516
40
1517
40
1518
40
1519
40
1520
40
1521
40
1522
40
1523
40
1524
40
1525
40
1526
40
1527
40
1528
40
1529
40
1530
40
1531
40
1532
40
1533
40
1534
40
1535
40
1536
40
1537
40
1538
40
1539
40
1540
40
1541
40
1542
40
1543
40
1544
40
1545
40
1546
40
1547
40
1548
40
1549
40
1550
40
1551
40
1552
40
1553
40
1554
40
1555
40
1556
40
1557
40
1558
40
1559
40
1560
40
1561
40
1562
40
1563
40
1564
40
1565
40
1566
40
1567
40
1568
40
1569
40
1570
40
1571
40
1572
40
1573
40
1574
40
1575
40
1576
40
1577
40
1578
40
1579
40
1580
40
1581
40
1582
40
1583
40
1584
40
1585
40
1586
40
1587
40
1588
40
1589
40
1590
40
1591
40
1592
40
1593
40
1594
40
1595
40
1596
40
1597
40
1598
40
1599
40
1600
40
1601
40
1602
40
1603
40
1604
40
1605
40
1606
40
1607
40
1608
40
1609
40
1610
40
1611
40
1612
40
1613
40
1614
40
1615
40
1616
40
1617
40
1618
40
1619
40
1620
40
1621
40
1622
40
1623
40
1624
40
1625
40
1626
40
1627
40
1628
40
1629
40
1630
40
1631
40
1632
40
1633
40
1634
40
1635
40
1636
40
1637
40
1638
40
1639
40
1640
40
1641
40
1642
40
1643
40
1644
40
1645
40
1646
40
1647
40
1648
40
1649
40
1650
40
1651
40
1652
40
1653
40
1654
40
1655
40
1656
40
1657
40
1658
40
1659
40
1660
40
1661
40
1662
40
1663
40
1664
40
1665
40
1666
40
1667
40
1668
40
1669
40
1670
40
1671
40
1672
40
1673
40
1674
40
1675
40
1676
40
1677
40
1678
40
1679
40
1680
40
1681
40
1682
40
1683
40
1684
40
1685
40
1686
40
1687
40
1688
40
1689
40
1690
40
1691
40
1692
40
1693
40
1694
40
1695
40
1696
40
1697
40
1698
40
1699
40
1700
40
1701
40
1702
40
1703
40
1704
40
1705
40
1706
40
1707
40
1708
40
1709
40
1710
40
1711
40
1712
40
1713
40
1714
40
1715
40
1716
40
1717
40
1718
40
1719
40
1720
40
1721
40
1722
40
1723
40
1724
40
1725
40
1726
40
1727
40
1728
40
1729
40
1730
40
1731
40
1732
40
1733
40
1734
40
1735
40
1736
40
1737
40
1738
40
1739
40
1740
40
1741
40
1742
40
1743
40
1744
40
1745
40
1746
40
1747
40
1748
40
1749
40
1750
40
1751
40
1752
40
1753
40
1754
40
1755
40
1756
40
1757
40
1758
40
1759
40
1760
40
1761
40
1762
40
1763
40
1764
40
1765
40
1766
40
1767
40
1768
40
1769
40
1770
40
1771
40
1772
40
1773
40
1774
40
1775
40
1776
40
1777
40
1778
40
1779
40
1780
40
1781
40
1782
40
1783
40
1784
40
1785
40
1786
40
1787
40
1788
40
1789
40
1790
40
1791
40
1792
40
1793
40
1794
40
1795
40
1796
40
1797
40
1798
40
1799
40
1800
40
1801
40
1802
40
1803
40
1804
40
1805
40
1806
40
1807
40
1808
40
1809
40
1810
40
1811
40
1812
40
1813
40
1814
40
1815
40
1816
40
1817
40
1818
40
1819
40
1820
40
1821
40
1822
40
1823
40
1824
40
1825
40
1826
40
1827
40
1828
40
1829
40
1830
40
1831
40
1832
40
1833
40
1834
40
1835
40
1836
40
1837
40
1838
40
1839
40
1840
40
1841
40
1842
40
1843
40
1844
40
1845
40
1846
40
1847
40
1848
40
1849
40
1850
40
1851
40
1852
40
1853
40
1854
40
1855
40
1856
40
1857
40
1858
40
1859
40
1860
40
1861
40
1862
40
1863
40
1864
40
1865
40
1866
40
1867
40
1868
40
1869
40
1870
40
1871
40
1872
40
1873
40
1874
40
1875
40
1876
40
1877
40
1878
40
1879
40
1880
40
1881
40
1882
40
1883
40
1884
40
1885
40
1886
40
1887
40
1888
40
1889
40
1890
40
1891
40
1892
40
1893
40
1894
40
1895
40
1896
40
1897
40
1898
40
1899
40
1900
40
1901
40
1902
40
1903
40
1904
40
1905
40
1906
40
1907
40
1908
40
1909
40
1910
40
1911
40
1912
40
1913
40
1914
40
1915
40
1916
40
1917
40
1918
40
1919
40
1920
40
1921
40
1922
40
1923
40
1924
40
1925
40
1926
40
1927
40
1928
40
1929
40
1930
40
1931
40
1932
40
1933
40
1934
40
1935
40
1936
40
1937
40
1938
40
1939
40
1940
40
1941
40
1942
40
1943
40
1944
40
1945
40
1946
40
1947
40
1948
40
1949
40
1950
40
1951
40
1952
40
1953
40
1954
40
1955
40
1956
40
1957
40
1958
40
1959
40
1960
40
1961
40
1962
40
1963
40
1964
40
1965
40
1966
40
1967
40
1968
40
1969
40
1970
40
1971
40
1972
40
1973
40
1974
40
1975
40
1976
40
1977
40
1978
40
1979
40
1980
40
1981
40
1982
40
1983
40
1984
40
1985
40
1986
40
1987
40
1988
40
1989
40
1990
40
1991
40
1992
40
1993
40
1994
40
1995
40
1996
40
1997
40
1997
40
1997
40
1997
10
0
20
37.3
30
0
10
0.22321104484234816
20
37.293726427327854
30
0
10
0.4446728610430696
20
37.275089016326184
30
0
10
0.6627442676553987
20
37.24461975775298
30
0
10
0.8759838044718458
20
37.203149320405345
30
0
10
1.0832129495026295
20
37.15173504217338
30
0
10
1.2835456897476945
20
37.09158004885761
30
0
10
1.4763862677941129
20
37.02395598232718
30
0
10
1.66140201559484
20
36.950138414051835
30
0
10
1.83848046287584
20
36.8713595136215
30
0
10
2.0076796436043427
20
36.788778442744125
30
0
10
2.1691786540483786
20
36.7034671149975
30
0
10
2.3232330636429337
20
36.61640757164273
30
0
10
2.470137496732578
20
36.528496992599436
30
0
10
2.610195970303878
20
36.440556843872486
30
0
10
2.7436994721991983
20
36.35334345137409
30
0
10
2.8709097065313105
20
36.26755810491419
30
0
10
2.9920477667046237
20
36.18385548443221
30
0
10
3.1072865756398143
20
36.10284971030055
30
0
10
3.216746146159789
20
36.02511765630278
30
0
10
3.320490990206959
20
35.95119936127597
30
0
10
3.4185293045580134
20
35.88159547651454
30
0
10
3.5108138661660773
20
35.81676173492315
30
0
10
3.597244876974189
20
35.757100467560036
30
0
10
3.67767530237117
20
35.70294926673978
30
0
10
3.7519195373923813
20
35.65456704716444
30
0
10
3.8197664793302115
20
35.6121180335945
30
0
10
3.880998223768885
20
35.57565464613535
30
0
10
3.935415534041998
20
35.54510088236869
30
0
10
3.982870825119202
20
35.52023858112412
30
0
10
4.0233084997009385
20
35.50069978109778
30
0
10
4.056810965779074
20
35.485969020604784
30
0
10
4.083646580483263
20
35.475399491901726
30
0
10
4.104313398819475
20
35.468246023875956
30
0
10
4.11957060433996
20
35.46371558041513
30
0
10
4.1304488047676085
20
35.46103235787203
30
0
10
4.138231930466043
20
35.45951029723221
30
0
10
4.14440769613163
20
35.458622202486914
30
0
10
4.150589864015613
20
35.45805325351366
30
0
10
4.158422137377926
20
35.457728609185494
30
0
10
4.169478122422684
20
35.457809878527364
30
0
10
4.185172661415417
20
35.4586619606907
30
0
10
4.20669665949506
20
35.460797829440125
30
0
10
4.23498161589826
20
35.46481233189888
30
0
10
4.270693615747158
20
35.47131627088717
30
0
10
4.314251514762872
20
35.48087956240062
30
0
10
4.365861457624188
20
35.49398848501495
30
0
10
4.425559639390303
20
35.51101834735404
30
0
10
4.493256598041727
20
35.53222016921238
30
0
10
4.568778401768638
20
35.557718467879376
30
0
10
4.651902148811962
20
35.5875167931774
30
0
10
4.742384830860833
20
35.6215079042773
30
0
10
4.839985700830389
20
35.65948607222419
30
0
10
4.944482881164574
20
35.701159662752794
30
0
10
5.055685170197224
20
35.74616275398262
30
0
10
5.17343997853114
20
35.79406501136871
30
0
10
5.297638157138187
20
35.844379372974736
30
0
10
5.428216233716967
20
35.89656731666832
30
0
10
5.565156295391474
20
35.95004162456019
30
0
10
5.70848346664514
20
36.00416666979136
30
0
10
5.858260645077908
20
36.05825636773908
30
0
10
6.014579888903927
20
36.11157009850883
30
0
10
6.177549624991733
20
36.16330715931026
30
0
10
6.347276711683189
20
36.2126006772851
30
0
10
6.523842423046762
20
36.25851242260706
30
0
10
6.707271729147431
20
36.30003058974879
30
0
10
6.897495959868062
20
36.336073279452805
30
0
10
7.094310172056336
20
36.36550093762507
30
0
10
7.297328318584628
20
36.387141099795905
30
0
10
7.5059414788215575
20
36.399828075583436
30
0
10
7.719286491889236
20
36.402458336853044
30
0
10
7.936233551179004
20
36.39405923167296
30
0
10
8.155400714690888
20
36.373864613874524
30
0
10
8.375200131800591
20
36.341387085294876
30
0
10
8.593915127253513
20
36.29647431558249
30
0
10
8.809800319200736
20
36.2393377578963
30
0
10
9.021190869264556
20
36.17054652041015
30
0
10
9.226604082016271
20
36.090986202561126
30
0
10
9.424818150418071
20
36.001789908842014
30
0
10
9.614918358729067
20
35.90425389907763
30
0
10
9.796308444113293
20
35.79975186831261
30
0
10
9.9686915591169
20
35.689659715454404
30
0
10
10.132029553134547
20
35.5752982226641
30
0
10
10.286490571447764
20
35.45789614392157
30
0
10
10.432393837582097
20
35.338572220962305
30
0
10
10.57015803938433
20
35.21833226045193
30
0
10
10.700257026633258
20
35.098076569109864
30
0
10
10.823184230101115
20
34.9786133142912
30
0
10
10.939425609983866
20
34.86067423371726
30
0
10
11.049440029381866
20
34.74493013912495
30
0
10
11.15364557697333
20
34.63200458558875
30
0
10
11.252410349906967
20
34.52248479498515
30
0
10
11.346046397442466
20
34.41692940799059
30
0
10
11.434805809141517
20
34.31587292404245
30
0
10
11.518878244828878
20
34.21982682180415
30
0
10
11.59838951799063
20
34.12927738490982
30
0
10
11.673401152946411
20
34.044680236047284
30
0
10
11.74391114362559
20
33.96645154988095
30
0
10
11.809856454601235
20
33.894955914642864
30
0
10
11.871118122321924
20
33.830490889695646
30
0
10
11.927530117574992
20
33.77326851369221
30
0
10
11.978893370660254
20
33.72339440892464
30
0
10
12.024996448421192
20
33.680845745270915
30
0
10
12.065644169441587
20
33.64545017797983
30
0
10
12.100694776526236
20
33.61686888488631
30
0
10
12.130104989250158
20
33.594587799964216
30
0
10
12.153980270822782
20
33.577921709982185
30
0
10
12.172625135825863
20
33.56603555563114
30
0
10
12.186585834309405
20
33.55798557305413
30
0
10
12.196676186065455
20
33.55277962074691
30
0
10
12.20397777554321
20
33.549451552123685
30
0
10
12.209808885977726
20
33.54713996495424
30
0
10
12.215662261909891
20
33.5451587531032
30
0
10
12.223118640203968
20
33.54304708971941
30
0
10
12.233748732975616
20
33.54059023214808
30
0
10
12.249018883050924
20
33.53780882468919
30
0
10
12.270214065204241
20
33.53492105106375
30
0
10
12.298387049274712
20
33.532286850914105
30
0
10
12.334336315007901
20
33.530345216796874
30
0
10
12.37860979053918
20
33.529554428446964
30
0
10
12.431528007001315
20
33.530342048381755
30
0
10
12.49321910580903
20
33.5330679607278
30
0
10
12.56365879503269
20
33.538000727604334
30
0
10
12.642710002967865
20
33.545305554692725
30
0
10
12.730158874466062
20
33.555041213365236
30
0
10
12.82574541658854
20
33.56716310994446
30
0
10
12.929188314610796
20
33.58153000459539
30
0
10
13.040204189347332
20
33.59791239421756
30
0
10
13.15852193270399
20
33.616001107888806
30
0
10
13.283892849502294
20
33.63541512794216
30
0
10
13.416097249123311
20
33.65570801451932
30
0
10
13.554947945004454
20
33.67637258362486
30
0
10
13.70029088341564
20
33.69684369459117
30
0
10
13.852002867112178
20
33.716499176856146
30
0
10
14.00998608729384
20
33.73465910490545
30
0
10
14.174158952313954
20
33.75058385036022
30
0
10
14.344442537464783
20
33.763471633813865
30
0
10
14.520741929483213
20
33.772456688267276
30
0
10
14.702921879525118
20
33.77660963097689
30
0
10
14.890776609917497
20
33.774942180200945
30
0
10
15.083994450436595
20
33.766418840736044
30
0
10
15.28211928190465
20
33.749978421710296
30
0
10
15.484512503896392
20
33.724567955907986
30
0
10
15.690321182003727
20
33.68919043424654
30
0
10
15.898459650016784
20
33.64296551095451
30
0
10
16.10761235994689
20
33.58519902899565
30
0
10
16.31626434077938
20
33.51545342985967
30
0
10
16.522761750474977
20
33.43360799861583
30
0
10
16.725399039730377
20
33.33989692261452
30
0
10
16.922522649417232
20
33.23491544776777
30
0
10
17.112636169316396
20
33.119590036111376
30
0
10
17.2944905475284
20
32.995115926153844
30
0
10
17.46714602893391
20
32.86287240932914
30
0
10
17.62999899132309
20
32.72433010892847
30
0
10
17.782774403307066
20
32.58096448475446
30
0
10
17.925490784099495
20
32.43418625528619
30
0
10
18.058407800871596
20
32.28529415169724
30
0
10
18.181966850174334
20
32.13545029611672
30
0
10
18.296733006869093
20
31.985674818257195
30
0
10
18.403343808025184
20
31.83685450179935
30
0
10
18.50246749023095
20
31.689760014563685
30
0
10
18.59477109600325
20
31.54506704449625
30
0
10
18.680897474304487
20
31.40337785938163
30
0
10
18.7614495251489
20
31.26524101704558
30
0
10
18.836979875696905
20
31.131167950485015
30
0
10
18.907984319784124
20
31.001645863505967
30
0
10
18.974897646060885
20
30.877146810774246
30
0
10
19.038090820786117
20
30.758133055131438
30
0
10
19.09786882765902
20
30.645058856944363
30
0
10
19.15446878131938
20
30.538368811854074
30
0
10
19.20805822693647
20
30.43849276211647
30
0
10
19.2587338298362
20
30.34583720381407
30
0
10
19.30652096264782
20
30.26077303755974
30
0
10
19.351375023201456
20
30.18361950884097
30
0
10
19.393185658946926
20
30.114624310095184
30
0
10
19.43178539955798
20
30.053940133254905
30
0
10
19.466964432743104
20
30.001598532031785
30
0
10
19.49849326864134
20
29.95748281696358
30
0
10
19.526154641308125
20
29.921302836284656
30
0
10
19.54978498473933
20
29.89257574063389
30
0
10
19.56932404648446
20
29.870617859557424
30
0
10
19.58486870841816
20
29.85455311803149
30
0
10
19.596724265787138
20
29.843342395622038
30
0
10
19.605444097839534
20
29.835835455917746
30
0
10
19.611847971944457
20
29.830842657886485
30
0
10
19.61701115305292
20
29.827218521586186
30
0
10
19.622221281638637
20
29.823945005866506
30
0
10
19.628906661336558
20
29.820200846909753
30
0
10
19.638546105883368
20
29.815405503455267
30
0
10
19.65257454014478
20
29.80923169457011
30
0
10
19.672298733617293
20
29.80158736177197
30
0
10
19.698834052226832
20
29.792573812413064
30
0
10
19.73306750995508
20
29.78243010442261
30
0
10
19.77564673218065
20
29.771473981381643
30
0
10
19.82699028342946
20
29.760047581733474
30
0
10
19.887312791575464
20
29.748472981541415
30
0
10
19.95665818998251
20
29.737019532648517
30
0
10
20.034935518131615
20
29.725882613570157
30
0
10
20.121953343052933
20
29.715172019760953
30
0
10
20.217450452156314
20
29.704907658240217
30
0
10
20.32112173620578
20
29.695020219184098
30
0
10
20.432639043802222
20
29.68535481493744
30
0
10
20.551667280266038
20
29.6756760106999
30
0
10
20.6778762284646
20
29.665673103548283
30
0
10
20.810948576766506
20
29.654964883349326
30
0
10
20.950584524901156
20
29.643103419072663
30
0
10
21.096503157390163
20
29.62957667044863
30
0
10
21.24844056580115
20
29.613809953666422
30
0
10
21.4061444962705
20
29.595166521389597
30
0
10
21.56936512861663
20
29.57294778171501
30
0
10
21.737841497676463
20
29.546394001840863
30
0
10
21.911283101814416
20
29.51468673027407
30
0
10
22.089346482491056
20
29.47695460995232
30
0
10
22.271607090609635
20
29.432284682609836
30
0
10
22.457527660910415
20
29.37974157596917
30
0
10
22.646425623752965
20
29.31839691570044
30
0
10
22.83744370068375
20
29.2473706448421
30
0
10
23.02952945866415
20
29.16588439807462
30
0
10
23.221430686928404
20
29.073324543072093
30
0
10
23.411713264143298
20
28.969309183349758
30
0
10
23.59880599972082
20
28.853750044841334
30
0
10
23.78107251991375
20
28.72689796283799
30
0
10
23.956904272342673
20
28.589361000830582
30
0
10
24.124822791769148
20
28.44208787341616
30
0
10
24.283575683855563
20
28.28631588557478
30
0
10
24.43221104843738
20
28.123490213517933
30
0
10
24.57011952698642
20
27.955167468028932
30
0
10
24.697040335622486
20
27.7829190058797
30
0
10
24.813035024101758
20
27.608247794355734
30
0
10
24.918437984813448
20
27.432527857286647
30
0
10
25.01379480814397
20
27.256969445895585
30
0
10
25.099798695465687
20
27.082607988762152
30
0
10
25.1772324246778
20
26.910311670946868
30
0
10
25.24692010437718
20
26.74080132257988
30
0
10
25.30969009917396
20
26.574676679055933
30
0
10
25.366348508076175
20
26.412444311428814
30
0
10
25.41766147013509
20
26.25454400971584
30
0
10
25.464344172030962
20
26.101371743587677
30
0
10
25.507054491726194
20
25.953298346316227
30
0
10
25.546389511469954
20
25.81068373883838
30
0
10
25.582883518715462
20
25.67388687948443
30
0
10
25.617006496740853
20
25.543271766307612
30
0
10
25.649162450044706
20
25.41920980610316
30
0
10
25.67968720798296
20
25.302078756910458
30
0
10
25.708845617634847
20
25.192258294918908
30
0
10
25.73682829662372
20
25.09012208910238
30
0
10
25.76374839366332
20
24.996026122668297
30
0
10
25.789639119564413
20
24.91029292053413
30
0
10
25.814453172213103
20
24.833191380002162
30
0
10
25.838065568884645
20
24.764912126358222
30
0
10
25.860281760757918
20
24.705538805134733
30
0
10
25.88085312219755
20
24.65501654761021
30
0
10
25.899501798226613
20
24.61312002498256
30
0
10
25.915956222418032
20
24.579424945594425
30
0
10
25.92999716048677
20
24.55328826995566
30
0
10
25.941511808125426
20
24.533843317118233
30
0
10
25.950550506098672
20
24.52001564516377
30
0
10
25.957377719149626
20
24.510563497029917
30
0
10
25.962507167166176
20
24.50414253240503
30
0
10
25.966711584970362
20
24.499389146252877
30
0
10
25.971001167574645
20
24.495011424677106
30
0
10
25.976570841838793
20
24.489873667193468
30
0
10
25.984723360945477
20
24.483060894812798
30
0
10
25.99678050853253
20
24.473914003694713
30
0
10
26.01399660041633
20
24.462032798844042
30
0
10
26.037486567719036
20
24.447250755977034
30
0
10
26.068176280195317
20
24.429589966848262
30
0
10
26.106777303576955
20
24.40920638309609
30
0
10
26.153783700496533
20
24.386334484204536
30
0
10
26.209485715385693
20
24.361237917265314
30
0
10
26.273994299284343
20
24.33416966401944
30
0
10
26.347270939798452
20
24.30534272543389
30
0
10
26.429158503517222
20
24.274910555026423
30
0
10
26.51941021566221
20
24.242955531857667
30
0
10
26.617715147724677
20
24.2094834600067
30
0
10
26.723719509277114
20
24.174422180914878
30
0
10
26.837043630108965
20
24.137622689176336
30
0
10
26.957294826732518
20
24.098861515149334
30
0
10
27.08407644790302
20
24.057843503784003
30
0
10
27.216993357824567
20
24.014204448543232
30
0
10
27.35565400062703
20
23.96751333172163
30
0
10
27.499669040190337
20
23.917274193495572
30
0
10
27.64864642272101
20
23.862927924120967
30
0
10
27.802182602654785
20
23.80385456894206
30
0
10
27.959849649319235
20
23.739377068926512
30
0
10
28.1211780682565
20
23.66876772818987
30
0
10
28.285635495616916
20
23.591259072605947
30
0
10
28.45260202862597
20
23.50606106236153
30
0
10
28.62134389087171
20
23.41238670730239
30
0
10
28.790988382615495
20
23.309487803916383
30
0
10
28.960504486728667
20
23.19670152708659
30
0
10
29.128694747316295
20
23.07350677359112
30
0
10
29.294204553123393
20
22.939586463751574
30
0
10
29.455554065988924
20
22.79488882926188
30
0
10
29.611195207975104
20
22.639677901744165
30
0
10
29.759591377534587
20
22.474562203852592
30
0
10
29.899311810073467
20
22.300492215738128
30
0
10
30.029127498602143
20
22.11872198803229
30
0
10
30.14809337598454
20
21.93073743381581
30
0
10
30.25560331730058
20
21.738161220743436
30
0
10
30.351410162097043
20
21.54264923497307
30
0
10
30.43561050052197
20
21.34579455403952
30
0
10
30.50860083544644
20
21.149051680354862
30
0
10
30.571015894799203
20
20.95368797607669
30
0
10
30.62366064710165
20
20.760763011105364
30
0
10
30.66744561577984
20
20.571131713355193
30
0
10
30.703331730575375
20
20.385464633292383
30
0
10
30.732287497815136
20
20.204278180552546
30
0
10
30.755258546978435
20
20.02796868207418
30
0
10
30.773147911582022
20
19.8568457644292
30
0
10
30.78680463683112
20
19.69116226890543
30
0
10
30.797018208161365
20
19.531139319991222
30
0
10
30.80451657881691
20
19.376986163740202
30
0
10
30.809966017755166
20
19.22891498980134
30
0
10
30.813971460154516
20
19.08715123073458
30
0
10
30.817076450912975
20
18.95193988805943
30
0
10
30.819762105317224
20
18.823548346849755
30
0
10
30.82244477872432
20
18.702265969659933
30
0
10
30.825472362460722
20
18.588400548102364
30
0
10
30.829119337027258
20
18.48227146728292
30
0
10
30.83358094862827
20
18.384199232806814
30
0
10
30.8389671607396
20
18.294490856935035
30
0
10
30.84529738941609
20
18.213420549223084
30
0
10
30.85249745990858
20
18.14120527758321
30
0
10
30.86040068696639
20
18.077975147607447
30
0
10
30.86875538816112
20
18.02373928563431
30
0
10
30.87724131804429
20
17.978349067564935
30
0
10
30.88549721281145
20
17.94146207873467
30
0
10
30.893160578043346
20
17.9125119089125
30
0
10
30.89991883218117
20
17.89069032044505
30
0
10
30.90556799275613
20
17.874948779965226
30
0
10
30.9100717701441
20
17.864025057873885
30
0
10
30.913611236348093
20
17.856497125549335
30
0
10
30.916614463738405
20
17.850861221529637
30
0
10
30.919757685174712
20
17.845625009475988
30
0
10
30.923934634819496
20
17.83940221762726
30
0
10
30.93019749117748
20
17.83099390035931
30
0
10
30.939679035921035
20
17.819444227194374
30
0
10
30.953509136381435
20
17.804064584314805
30
0
10
30.972738467174157
20
17.784426657120783
30
0
10
30.998279038733596
20
17.76033079260079
30
0
10
31.030866188095285
20
17.731758923921852
30
0
10
31.07104196373721
20
17.698821526404455
30
0
10
31.119156484566783
20
17.661706256964102
30
0
10
31.175382240343595
20
17.620633233707952
30
0
10
31.239736160211997
20
17.575819283396918
30
0
10
31.312105055991633
20
17.527451459136817
30
0
10
31.392271203902126
20
17.475668861567925
30
0
10
31.47993597598381
20
17.42055119238241
30
0
10
31.574740365779444
20
17.362112338769915
30
0
10
31.676281907368647
20
17.300297440010194
30
0
10
31.784127881114703
20
17.234982176224264
30
0
10
31.897824888190076
20
17.165973351772028
30
0
10
32.01690492111163
20
17.093010175227498
30
0
10
32.14088801525007
20
17.01576594960207
30
0
10
32.26928148396678
20
16.933850184952828
30
0
10
32.401575659231206
20
16.846811443815294
30
0
10
32.537236021298206
20
16.754141541174658
30
0
10
32.67569165106515
20
16.655282049565944
30
0
10
32.816320130711624
20
16.549634392344533
30
0
10
32.958429411358146
20
16.436575098882432
30
0
10
33.101237813567636
20
16.31547795405683
30
0
10
33.24385424719691
20
16.18574465601041
30
0
10
33.385261873420696
20
16.046845007876325
30
0
10
33.52430959162929
20
15.89836641043311
30
0
10
33.65971654574847
20
15.740070377430213
30
0
10
33.79009476956668
20
15.571951076662987
30
0
10
33.91399355307455
20
15.394288003949763
30
0
10
34.02996577861339
20
15.207682760705232
30
0
10
34.136651620733694
20
15.013069725197301
30
0
10
34.232869748852494
20
14.811693146493903
30
0
10
34.31770232378653
20
14.605048917162277
30
0
10
34.3905594331687
20
14.394796736410958
30
0
10
34.45121197805042
20
14.18265521015114
30
0
10
34.49978859448444
20
13.97029619724781
30
0
10
34.53673977093306
20
13.759254076071203
30
0
10
34.5627783678492
20
13.550861036940722
30
0
10
34.578808587430274
20
13.346212920859834
30
0
10
34.585854874940736
20
13.14616383503864
30
0
10
34.58499927639597
20
12.9513434444271
30
0
10
34.577331922414515
20
12.762189015279674
30
0
10
34.563915809867
20
12.578984578707502
30
0
10
34.545764587328485
20
12.40190114543693
30
0
10
34.52383073818221
20
12.231033900600302
30
0
10
34.49900117550822
20
12.066434156499774
30
0
10
34.47209747725541
20
11.908135256293054
30
0
10
34.44387849041459
20
11.756172542549761
30
0
10
34.41504360217268
20
11.610597997453723
30
0
10
34.386235492390966
20
11.471490336976174
30
0
10
34.35804159580015
20
11.3389613075142
30
0
10
34.3309938105033
20
11.21315877461236
30
0
10
34.30556621293485
20
11.094266966943428
30
0
10
34.28217071094473
20
10.982503980690954
30
0
10
34.26115072316538
20
10.87811638299238
30
0
10
34.2427731524431
20
10.781370498105275
30
0
10
34.227219160904625
20
10.6925397429685
30
0
10
34.2145745859073
20
10.611887242531845
30
0
10
34.204821277186426
20
10.539642966563708
30
0
10
34.197831173150206
20
10.475974882974802
30
0
10
34.193365501544356
20
10.420954231270457
30
0
10
34.191081938581966
20
10.374516085713015
30
0
10
34.19055264579914
20
10.336417931390486
30
0
10
34.19129550350668
20
10.306200885123332
30
0
10
34.19281926584905
20
10.283160066967485
30
0
10
34.19468065861348
20
10.266331785611719
30
0
10
34.19654792845356
20
10.25450478938531
30
0
10
34.19826190045544
20
10.246260165887318
30
0
10
34.199883534899854
20
10.240039509968348
30
0
10
34.20171758442404
20
10.234234710076226
30
0
10
34.20430576527474
20
10.22728704841505
30
0
10
34.20838909092297
20
10.217780400886182
30
0
10
34.21484570770692
20
10.204514431704105
30
0
10
34.224615432665296
20
10.186548483538576
30
0
10
34.23862372756287
20
10.163213580598558
30
0
10
34.25771599219693
20
10.134096267819611
30
0
10
34.28260901734582
20
10.099002144880451
30
0
10
34.313861874038906
20
10.057908323418966
30
0
10
34.351864787389516
20
10.010913107892927
30
0
10
34.396842294572586
20
9.958188977293627
30
0
10
34.44886619584984
20
9.899942415385784
30
0
10
34.507874070092534
20
9.836381965633244
30
0
10
34.57368994734902
20
9.767694359957334
30
0
10
34.64604470821948
20
9.694027695628206
30
0
10
34.724594664206
20
9.615480276796927
30
0
10
34.80893745361575
20
9.532093725029544
30
0
10
34.89862484566712
20
9.443849148274841
30
0
10
34.993172311940356
20
9.350665435665485
30
0
10
35.09206534850328
20
9.252399055233337
30
0
10
35.19476256524116
20
9.14884504480414
30
0
10
35.300695548424585
20
9.039739195850757
30
0
10
35.40926549190942
20
8.924761738911878
30
0
10
35.519836624472845
20
8.803543150809304
30
0
10
35.63172658113242
20
8.67567301279497
30
0
10
35.744194123745025
20
8.540713129854934
30
0
10
35.8564250581535
20
8.398216318335553
30
0
10
35.9675178532164
20
8.247752283424806
30
0
10
36.07647132924732
20
8.088941695857136
30
0
10
36.182177752871546
20
7.921498764580306
30
0
10
36.28342552450501
20
7.745281135838786
30
0
10
36.3789159907547
20
7.5603437950518915
30
0
10
36.46729826084998
20
7.3669910280564945
30
0
10
36.5472238014848
20
7.165818013160413
30
0
10
36.61741890171642
20
6.957732242296512
30
0
10
36.67676835304654
20
6.74394581328949
30
0
10
36.72439916707665
20
6.525933401939708
30
0
10
36.75975062253708
20
6.305357108715915
30
0
10
36.78261788001764
20
6.083966785322
30
0
10
36.79316113076616
20
5.863490421886841
30
0
10
36.79187945878762
20
5.645531484671007
30
0
10
36.77955586969233
20
5.43148788787823
30
0
10
36.75718488808469
20
5.22250153629912
30
0
10
36.72589550715423
20
5.019440313546504
30
0
10
36.68688037199027
20
4.822908329121919
30
0
10
36.64133824244008
20
4.633276603562745
30
0
10
36.59043259661494
20
4.4507253961510544
30
0
10
36.535265856377094
20
4.275290414441939
30
0
10
36.476866628212036
20
4.106907214348469
30
0
10
36.41618649684701
20
3.9454503514527746
30
0
10
36.3541029408766
20
3.7907657496216354
30
0
10
36.29142546316196
20
3.642696101872815
30
0
10
36.22890272603132
20
3.50109991780088
30
0
10
36.167229152250485
20
3.3658651936937893
30
0
10
36.107050001018116
20
3.236918741925889
30
0
10
36.04896432868338
20
3.1142320927882885
30
0
10
35.9935255114764
20
2.9978246587636157
30
0
10
35.94123917578341
20
2.887764580466361
30
0
10
35.89255849029856
20
2.784167383227726
30
0
10
35.847876865073005
20
2.687192277911644
30
0
10
35.80751821677469
20
2.5970356495486397
30
0
10
35.771725139516604
20
2.513921009604202
30
0
10
35.74064560725179
20
2.4380844755628694
30
0
10
35.714319259949
20
2.3697547449638905
30
0
10
35.69266490208634
20
2.309126643553134
30
0
10
35.675471531765524
20
2.256327773561166
30
0
10
35.66239590510121
20
2.2113787022767184
30
0
10
35.65297009617106
20
2.174148602267726
30
0
10
35.646622397495875
20
2.144310235306633
30
0
10
35.642713829600424
20
2.121300364995697
30
0
10
35.640590211639804
20
2.1042934643021147
30
0
10
35.639646266703366
20
2.092197060427181
30
0
10
35.63939425853877
20
2.0836753515901227
30
0
10
35.639526443955816
20
2.077203467142147
30
0
10
35.63995966511077
20
2.071148545493444
30
0
10
35.64085268678044
20
2.0638673881727057
30
0
10
35.64259219018717
20
2.0538060641928486
30
0
10
35.64575009096265
20
2.0395862193126355
30
0
10
35.651020760347635
20
2.020066267735788
30
0
10
35.659149893430516
20
1.9943717664898348
30
0
10
35.67086654047515
20
1.9618958613580582
30
0
10
35.686826910332265
20
1.9222757337466585
30
0
10
35.707574444615325
20
1.8753534616785934
30
0
10
35.733516789360685
20
1.8211297427085857
30
0
10
35.764917540564156
20
1.7597173233272503
30
0
10
35.80189923973135
20
1.6912987086663502
30
0
10
35.84445381631949
20
1.6160905397598804
30
0
10
35.89245710263612
20
1.5343153286955613
30
0
10
35.945684790378536
20
1.4461801438080044
30
0
10
36.003827978323
20
1.3518612678930717
30
0
10
36.06650712574026
20
1.2514936721297516
30
0
10
36.133283720995315
20
1.1451642160034958
30
0
10
36.20366930381107
20
1.0329076890471787
30
0
10
36.27713167604104
20
0.9147050814160123
30
0
10
36.3530982427765
20
0.790483766915062
30
0
10
36.430956487609954
20
0.6601195856100662
30
0
10
36.510051645998914
20
0.5234411162228811
30
0
10
36.589681741454775
20
0.3802367247928127
30
0
10
36.66909033369696
20
0.230265250236817
30
0
10
36.74745763786104
20
0.07327140472151117
30
0
10
36.8238911430282
20
-0.09099293733022118
30
0
10
36.89741749612496
20
-0.26274051485184835
30
0
10
36.96697818136438
20
-0.44211296000266154
30
0
10
37.03143228550846
20
-0.6291380149913777
30
0
10
37.089570143430976
20
-0.8236817182970702
30
0
10
37.1401415302496
20
-1.025399751904588
30
0
10
37.18190087346865
20
-1.233694541493759
30
0
10
37.213669390192855
20
-1.4476866678159848
30
0
10
37.23441019273393
20
-1.666209706536155
30
0
10
37.24330797946877
20
-1.8878357994902302
30
0
10
37.239841332492865
20
-2.1109346508481903
30
0
10
37.22383453430311
20
-2.333761894125554
30
0
10
37.19547830664182
20
-2.554565747178614
30
0
10
37.155314752804784
20
-2.771696023461028
30
0
10
37.10418932175661
20
-2.983698814476714
30
0
10
37.04317926201762
20
-3.189383836804489
30
0
10
36.97351165950047
20
-3.387858103996386
30
0
10
36.89648400274531
20
-3.5785268010595654
30
0
10
36.81339705310353
20
-3.7610677901098692
30
0
10
36.72550524493507
20
-3.935388935313068
30
0
10
36.633985511993366
20
-4.101577504241263
30
0
10
36.53992233148511
20
-4.259849162508907
30
0
10
36.444305169886704
20
-4.410501592828668
30
0
10
36.34803416273575
20
-4.553875366938402
30
0
10
36.25193031036868
20
-4.690322828453409
30
0
10
36.15674728546372
20
-4.820184529302625
30
0
10
36.063182813290176
20
-4.943772126693567
30
0
10
35.97188832818721
20
-5.061356437573998
30
0
10
35.88347616447604
20
-5.17315940776599
30
0
10
35.79852390760171
20
-5.279348961676003
30
0
10
35.71757574508695
20
-5.380035975829068
30
0
10
35.64114076130685
20
-5.47527292133738
30
0
10
35.569688160550015
20
-5.565054027860953
30
0
10
35.50363942288638
20
-5.64931712993709
30
0
10
35.443357440016236
20
-5.727947665139863
30
0
10
35.38913278831965
20
-5.800785596121379
30
0
10
35.34116752114759
20
-5.867636302901436
30
0
10
35.29955724812873
20
-5.928286688303711
30
0
10
35.264272848595546
20
-5.9825277711752545
30
0
10
35.235143934279705
20
-6.03018478056998
30
0
10
35.21184705396118
20
-6.071155052538224
30
0
10
35.193902424172414
20
-6.105452728340762
30
0
10
35.18068333846464
20
-6.133257320512293
30
0
10
35.17144190714349
20
-6.154960839641357
30
0
10
35.1653529892352
20
-6.171205889009893
30
0
10
35.16157495303762
20
-6.182905813176939
30
0
10
35.15932165844488
20
-6.191238641210125
30
0
10
35.15793591224157
20
-6.19760987165204
30
0
10
35.15695219135913
20
-6.203584884516369
30
0
10
35.15613703987866
20
-6.210798536728008
30
0
10
35.15549958303191
20
-6.220855075840616
30
0
10
35.1552709830771
20
-6.235233815453905
30
0
10
35.155858241528726
20
-6.255214195587531
30
0
10
35.15778234831873
20
-6.281828712271666
30
0
10
35.1616121985148
20
-6.315845742233492
30
0
10
35.16790412309386
20
-6.357778650343049
30
0
10
35.17715349243197
20
-6.407914110368989
30
0
10
35.18976108171284
20
-6.466351559612043
30
0
10
35.20601380347343
20
-6.533046580635119
30
0
10
35.22607748187096
20
-6.607852869847527
30
0
10
35.24999853078644
20
-6.690559520097403
30
0
10
35.27771140053054
20
-6.780922111154499
30
0
10
35.309049117510995
20
-6.878687361763183
30
0
10
35.34375486728166
20
-6.9836118480061895
30
0
10
35.38149317981747
20
-7.095475634290935
30
0
10
35.421859777693534
20
-7.214091719905525
30
0
10
35.464389520071244
20
-7.339312084791058
30
0
10
35.508562132708064
20
-7.471030902035953
30
0
10
35.553805589032365
20
-7.609185221738245
30
0
10
35.599497138490236
20
-7.7537531501377215
30
0
10
35.64496210612021
20
-7.904749266622571
30
0
10
35.68947075159626
20
-8.062216755212408
30
0
10
35.732233715184414
20
-8.226215500743267
30
0
10
35.77239692526985
20
-8.3968052558438
30
0
10
35.80903731604725
20
-8.574022992312665
30
0
10
35.84116129192343
20
-8.757853809649927
30
0
10
35.867708507293
20
-8.948195406727613
30
0
10
35.88756404953646
20
-9.144817244526918
30
0
10
35.89958225515098
20
-9.347317182061333
30
0
10
35.90262480050476
20
-9.555080429585452
30
0
10
35.89561403949903
20
-9.767247735250466
30
0
10
35.8775996517743
20
-9.982701085835451
30
0
10
35.84783280052938
20
-10.20007493356469
30
0
10
35.80583808659452
20
-10.417798272584614
30
0
10
35.75147106789721
20
-10.634167657221749
30
0
10
35.68494946315744
20
-10.847444456627432
30
0
10
35.606850075336034
20
-11.055963311409558
30
0
10
35.518070236306464
20
-11.258235252800766
30
0
10
35.41976010378732
20
-11.453029781198435
30
0
10
35.31323787294118
20
-11.63942518748216
30
0
10
35.1999021039566
20
-11.816823687442529
30
0
10
35.08115368104574
20
-11.984934982065536
30
0
10
34.95833561978493
20
-12.143736634647343
30
0
10
34.83269386821001
20
-12.293421400975756
30
0
10
34.7053579689633
20
-12.43434079507465
30
0
10
34.57733776630828
20
-12.56695179741679
30
0
10
34.44953129660667
20
-12.691770821129406
30
0
10
34.32273917783929
20
-12.809336610614778
30
0
10
34.19768166741675
20
-12.92018200291156
30
0
10
34.07501562841881
20
-13.024813462476237
30
0
10
33.95534963903703
20
-13.123696863029593
30
0
10
33.83925626005838
20
-13.21724794598982
30
0
10
33.727281009863695
20
-13.305826065809425
30
0
10
33.61994791312483
20
-13.38973011817377
30
0
10
33.51776163860719
20
-13.46919586580456
30
0
10
33.421206276729755
20
-13.544394194727234
30
0
10
33.330740777552386
20
-13.615430142651578
30
0
10
33.24679101827071
20
-13.682342845721195
30
0
10
33.169738438054814
20
-13.745106859653628
30
0
10
33.0999052120132
20
-13.803635630811224
30
0
10
33.03753608619693
20
-13.857788212015627
30
0
10
32.98277731810684
20
-13.907380600631402
30
0
10
32.93565371446842
20
-13.952203247149502
30
0
10
32.896045556552714
20
-13.992046216996474
30
0
10
32.86366821543472
20
-14.026733016952019
30
0
10
32.83805833278398
20
-14.056163037211215
30
0
10
32.81857126445877
20
-14.080360791304868
30
0
10
32.80439458170068
20
-14.099527729384171
30
0
10
32.79458126542907
20
-14.114089759041928
30
0
10
32.78810345638544
20
-14.124731537467497
30
0
10
32.78392338599405
20
-14.132408175558886
30
0
10
32.78107331344434
20
-14.138327151036135
30
0
10
32.778732509379495
20
-14.14389815343523
30
0
10
32.77628823471552
20
-14.150655282460681
30
0
10
32.773370172227
20
-14.160162436883315
30
0
10
32.76985336091301
20
-14.173916579609033
30
0
10
32.76583150492999
20
-14.193263463262188
30
0
10
32.76156826531917
20
-14.219336573082385
30
0
10
32.75743713125171
20
-14.253024123381376
30
0
10
32.75386034153741
20
-14.294963056588955
30
0
10
32.75125488892498
20
-14.345554768594926
30
0
10
32.749990216075986
20
-14.404995348166722
30
0
10
32.75035898610338
20
-14.473313194608327
30
0
10
32.75255996307827
20
-14.550408217920985
30
0
10
32.75669073383235
20
-14.636088644912265
30
0
10
32.76274757072768
20
-14.730103184935814
30
0
10
32.770629876366854
20
-14.832167657410885
30
0
10
32.780147081014235
20
-14.94198607490541
30
0
10
32.791026376440385
20
-15.059266661464713
30
0
10
32.80292014774355
20
-15.183733466001659
30
0
10
32.815412357846725
20
-15.315134206182998
30
0
10
32.828023442649844
20
-15.453244830600765
30
0
10
32.84021350760855
20
-15.597871073192474
30
0
10
32.851383809689594
20
-15.748847031459624
30
0
10
32.860876697310985
20
-15.9060305554077
30
0
10
32.8679744002889
20
-16.069295011819857
30
0
10
32.871897343932886
20
-16.238516820546696
30
0
10
32.87180302912625
20
-16.413558094301166
30
0
10
32.866786976717194
20
-16.594243821949295
30
0
10
32.85588774619821
20
-16.780333411135917
30
0
10
32.838098511928756
20
-16.971487152488073
30
0
10
32.81238793912503
20
-17.16722936192258
30
0
10
32.77773288228906
20
-17.366911586176847
30
0
10
32.73316441582388
20
-17.56968112547525
30
0
10
32.677826645657014
20
-17.77446177907786
30
0
10
32.611044639185074
20
-17.979954427626165
30
0
10
32.532394117310126
20
-18.184663993724477
30
0
10
32.44176232179368
20
-18.386955893907416
30
0
10
32.33938813070205
20
-18.585139487647368
30
0
10
32.22587127386262
20
-18.777569492500714
30
0
10
32.102145659404
20
-18.96275099049378
30
0
10
31.969419173747667
20
-19.13943164680506
30
0
10
31.829089507954883
20
-19.306667151647332
30
0
10
31.682650123811523
20
-19.463851969360125
30
0
10
31.531601026738116
20
-19.61071505743294
30
0
10
31.377375859789403
20
-19.747286761322634
30
0
10
31.22129158704291
20
-19.87384686718296
30
0
10
31.064521668799046
20
-19.990864430223954
30
0
10
30.90808959930647
20
-20.09893824465445
30
0
10
30.752877544214776
20
-20.19874391040136
30
0
10
30.599644388333544
20
-20.290990481047626
30
0
10
30.44904820987827
20
-20.37638731376671
30
0
10
30.301669421149942
20
-20.455620211071725
30
0
10
30.1580320968164
20
-20.5293351743529
30
0
10
30.018622089732325
20
-20.598127876987878
30
0
10
29.883901314810252
20
-20.662537092849654
30
0
10
29.75431806993185
20
-20.723040611578856
30
0
10
29.630313512767838
20
-20.78005252236653
30
0
10
29.51232448924854
20
-20.833921093387108
30
0
10
29.400782873516658
20
-20.88492679274449
30
0
10
29.296111480307008
20
-20.933280291018473
30
0
10
29.19871649031036
20
-20.979120569997114
30
0
10
29.108976225832716
20
-21.022513555719865
30
0
10
29.027226070284364
20
-21.06345201163555
30
0
10
28.953739392239015
20
-21.101857772193277
30
0
10
28.888704575708633
20
-21.1375877473119
30
0
10
28.832198741260697
20
-21.17044542429298
30
0
10
28.784159523112436
20
-21.200199723269503
30
0
10
28.744357350730112
20
-21.22661285354423
30
0
10
28.712371968758184
20
-21.249478058422028
30
0
10
28.6875781468628
20
-21.268666634272044
30
0
10
28.669146212153812
20
-21.28418131697923
30
0
10
28.656062572150706
20
-21.296210300947614
30
0
10
28.647173244413047
20
-21.305173477425726
30
0
10
28.64124944335981
20
-21.31175102168813
30
0
10
28.63706912762341
20
-21.316885346632503
30
0
10
28.633503546058222
20
-21.32175125435781
30
0
10
28.629595101076
20
-21.3276953222102
30
0
10
28.624613667442308
20
-21.336152402188706
30
0
10
28.61808294405386
20
-21.34855225174931
30
0
10
28.609775038777247
20
-21.366230936559223
30
0
10
28.599677999002328
20
-21.39035937423472
30
0
10
28.58794537850262
20
-21.421896381508937
30
0
10
28.57483827828992
20
-21.461567819581216
30
0
10
28.560668980600937
20
-21.509868696069255
30
0
10
28.545752442293647
20
-21.567082329646095
30
0
10
28.530368749381676
20
-21.633309947593233
30
0
10
28.514737011350732
20
-21.708504809149385
30
0
10
28.498999450808107
20
-21.792506402671016
30
0
10
28.483213596149334
20
-21.88507185224529
30
0
10
28.467350292277033
20
-21.985903026562642
30
0
10
28.451295446898367
20
-22.094668824158518
30
0
10
28.43485381344344
20
-22.21102271312164
30
0
10
28.417753535356507
20
-22.33461589860831
30
0
10
28.399650566645228
20
-22.46510656504803
30
0
10
28.380132414946743
20
-22.602165570228024
30
0
10
28.358720930855814
20
-22.745478816190296
30
0
10
28.33487411184061
20
-22.894746331274593
30
0
10
28.30798712867869
20
-23.0496779026785
30
0
10
28.27739304572489
20
-23.209984931496596
30
0
10
28.24236401746354
20
-23.375368080534148
30
0
10
28.202114114451874
20
-23.54550030097954
30
0
10
28.155805349862902
20
-23.720005026418708
30
0
10
28.102558890933892
20
-23.89842979475607
30
0
10
28.041473735461317
20
-24.080216379954624
30
0
10
27.971655125825823
20
-24.26466972342557
30
0
10
27.89225440968076
20
-24.450929480676184
30
0
10
27.80252067427785
20
-24.637949589202474
30
0
10
27.701862130577958
20
-24.824492424153775
30
0
10
27.589912053913054
20
-25.0091441363762
30
0
10
27.46659072921674
20
-25.19035595069899
30
0
10
27.33215243477757
20
-25.366512199572725
30
0
10
27.187206379370558
20
-25.536020143165405
30
0
10
27.032703621359506
20
-25.697410647465034
30
0
10
26.86988816049948
20
-25.849434672223587
30
0
10
26.70021800082099
20
-25.991140107569592
30
0
10
26.525268517582774
20
-26.121917337079015
30
0
10
26.34663365031131
20
-26.2415087954567
30
0
10
26.165839386217357
20
-26.349985318006873
30
0
10
25.98427951471975
20
-26.447697819893715
30
0
10
25.803177671559823
20
-26.535215431883934
30
0
10
25.62357427241892
20
-26.613260699307563
30
0
10
25.446333338089712
20
-26.68264986716029
30
0
10
25.27216273500605
20
-26.744242954305196
30
0
10
25.10164157515082
20
-26.798905305872758
30
0
10
24.935249728090252
20
-26.847480140600883
30
0
10
24.773395939363798
20
-26.89077037010876
30
0
10
24.61644248303228
20
-26.929527490058714
30
0
10
24.464725388407146
20
-26.964445371615362
30
0
10
24.3185700241722
20
-26.9961570799253
30
0
10
24.178302240901168
20
-27.025233245152283
30
0
10
24.0442554429357
20
-27.05218091126995
30
0
10
23.916773960691508
20
-27.07744214358278
30
0
10
23.796212988909783
20
-27.101391979568874
30
0
10
23.682935193652142
20
-27.124335572160103
30
0
10
23.57730390818249
20
-27.14650462369333
30
0
10
23.479672668562944
20
-27.168053469639332
30
0
10
23.39037072120181
20
-27.18905546851102
30
0
10
23.309684115698023
20
-27.209500703106837
30
0
10
23.237832142411804
20
-27.22929639328147
30
0
10
23.174939265175958
20
-27.24827182116972
30
0
10
23.121003415850225
20
-27.266189881793768
30
0
10
23.075862606025023
20
-27.282767432107164
30
0
10
23.039163227679786
20
-27.29770619136194
30
0
10
23.010334948445458
20
-27.310734796260654
30
0
10
22.988578321779407
20
-27.32166057400042
30
0
10
22.97287148195282
20
-27.33042675985616
30
0
10
22.962000889505934
20
-27.337167777039575
30
0
10
22.954617645193366
20
-27.342252813487566
30
0
10
22.949315722452276
20
-27.34630751259056
30
0
10
22.944722837094375
20
-27.350206070061773
30
0
10
22.939590503311422
20
-27.355031352176574
30
0
10
22.932868901942733
20
-27.362007481905373
30
0
10
22.923755184307296
20
-27.372415436340503
30
0
10
22.911709829953754
20
-27.387505438537193
30
0
10
22.89644255116663
20
-27.408419356996884
30
0
10
22.87787473650786
20
-27.43613255403156
30
0
10
22.85608817784812
20
-27.471419341266852
30
0
10
22.831269727711707
20
-27.51484124687092
30
0
10
22.803659443626454
20
-27.566753893906284
30
0
10
22.77350687554313
20
-27.627326776616734
30
0
10
22.741037414248726
20
-27.69657027305721
30
0
10
22.70642857620046
20
-27.774365228313737
30
0
10
22.669794879992065
20
-27.86049178813344
30
0
10
22.63117944739039
20
-27.954655446378727
30
0
10
22.590550419131343
20
-28.056509283067506
30
0
10
22.54780050292397
20
-28.1656720576979
30
0
10
22.502748313215665
20
-28.28174221721753
30
0
10
22.455140525259367
20
-28.404308046511815
30
0
10
22.404654205757563
20
-28.532954202396308
30
0
10
22.350898988614922
20
-28.667264790455864
30
0
10
22.29341904681928
20
-28.806823015938846
30
0
10
22.231695089340977
20
-28.951207305003134
30
0
10
22.165146905885102
20
-29.09998368854631
30
0
10
22.09313730725574
20
-29.25269421003164
30
0
10
22.014978665254592
20
-29.40884121373408
30
0
10
21.929943617015294
20
-29.567867654821022
30
0
10
21.837281796137663
20
-29.72913411650788
30
0
10
21.73624456166371
20
-29.891894074970313
30
0
10
21.626119428150314
20
-30.055270116245683
30
0
10
21.506275026852485
20
-30.218235161571116
30
0
10
21.37621574851906
20
-30.37960399900278
30
0
10
21.235642691567726
20
-30.538041041289055
30
0
10
21.08451445799102
20
-30.692089585602613
30
0
10
20.923098461869376
20
-30.840225381945423
30
0
10
20.752001913624163
20
-30.980932928410958
30
0
10
20.572172733555067
20
-31.112797332080994
30
0
10
20.384864941376954
20
-31.234599419416437
30
0
10
20.191569949101755
20
-31.34539906706093
30
0
10
19.9939227078222
20
-31.444592920693502
30
0
10
19.79359724931342
20
-31.531937789331966
30
0
10
19.592207841227104
20
-31.60753840510349
30
0
10
19.39122935206887
20
-31.671805378628385
30
0
10
19.19194480608378
20
-31.725393850963183
30
0
10
18.995421696631574
20
-31.7691346114711
30
0
10
18.802513403190684
20
-31.803967781990124
30
0
10
18.613879063704186
20
-31.83088585667565
30
0
10
18.430014507737756
20
-31.850889304066854
30
0
10
18.251287721384884
20
-31.86495502095492
30
0
10
18.077973976831505
20
-31.874016052996744
30
0
10
17.910287549945316
20
-31.878950113839025
30
0
10
17.748408468503403
20
-31.88057427989306
30
0
10
17.592503825793017
20
-31.87964351140323
30
0
10
17.44274386307737
20
-31.876851108827697
30
0
10
17.29931334979246
20
-31.87282969893132
30
0
10
17.162418870828386
20
-31.868151775883085
30
0
10
17.03229255276354
20
-31.863329171909676
30
0
10
16.909192590661963
20
-31.85881110558039
30
0
10
16.793400718827
20
-31.85498067702687
30
0
10
16.685216533844017
20
-31.852149879800994
30
0
10
16.584948352459403
20
-31.850553412727784
30
0
10
16.492900100693163
20
-31.85034183477212
30
0
10
16.40935362760281
20
-31.851574937913373
30
0
10
16.33454588118817
20
-31.85421662814954
30
0
10
16.26864066141493
20
-31.85813308346781
30
0
10
16.21169527615626
20
-31.863096428940327
30
0
10
16.16362345482639
20
-31.868796488194683
30
0
10
16.12415733515898
20
-31.874863107848878
30
0
10
16.092813090938243
20
-31.880900817289746
30
0
10
16.06886643495507
20
-31.886535918649745
30
0
10
16.051345170399465
20
-31.891473433161995
30
0
10
16.03904538504797
20
-31.895557992639464
30
0
10
16.030575162130518
20
-31.898829620777406
30
0
10
16.024424816642888
20
-31.901563670770614
30
0
10
16.01905662727736
20
-31.904285181133684
30
0
10
16.013001682440063
20
-31.90775202187259
30
0
10
16.004948851767775
20
-31.91290758642483
30
0
10
15.993812254289587
20
-31.920810444163084
30
0
10
15.978768574425573
20
-31.932553014001247
30
0
10
15.959262375589807
20
-31.949182488505745
30
0
10
15.934983841673018
20
-31.971634944962513
30
0
10
15.905827376294464
20
-32.000689120236196
30
0
10
15.871840637972385
20
-32.03694146718665
30
0
10
15.8331724080579
20
-32.08080026032897
30
0
10
15.79002524018225
20
-32.132494314593735
30
0
10
15.742616156811955
20
-32.192091249294535
30
0
10
15.691146417527705
20
-32.259520697529176
30
0
10
15.635779858526972
20
-32.3345988782187
30
0
10
15.5766284754375
20
-32.41705207839694
30
0
10
15.513743630135194
20
-32.50653757777824
30
0
10
15.447111315355675
20
-32.60266127936925
30
0
10
15.376650148342252
20
-32.704991781794945
30
0
10
15.302211077748238
20
-32.813070883639206
30
0
10
15.223578115677558
20
-32.926420605956366
30
0
10
15.140469724105987
20
-33.044546813070205
30
0
10
15.052540789678098
20
-33.16693945332744
30
0
10
14.959385422258588
20
-33.29306937383012
30
0
10
14.860541122167552
20
-33.42238162768887
30
0
10
14.755495183888709
20
-33.554285233505695
30
0
10
14.64369452914499
20
-33.688139515594315
30
0
10
14.524560450382586
20
-33.82323750611574
30
0
10
14.397509916294325
20
-33.95878747860729
30
0
10
14.26198501194823
20
-34.09389453046827
30
0
10
14.117491576966268
20
-34.2275451965988
30
0
10
13.963646970111714
20
-34.358599194040394
30
0
10
13.800234996584138
20
-34.48579323708514
30
0
10
13.627263452327952
20
-34.60776192478128
30
0
10
13.445016886225012
20
-34.72307942429121
30
0
10
13.254094907677842
20
-34.830322673001625
30
0
10
13.055425831065682
20
-34.92815225075115
30
0
10
12.850247681864863
20
-35.015401889477445
30
0
10
12.640053854102645
20
-35.091163484500704
30
0
10
12.426507991656647
20
-35.15485328298323
30
0
10
12.211339767387393
20
-35.20624767793372
30
0
10
11.996237633199547
20
-35.2454832118139
30
0
10
11.782754707945138
20
-35.2730229814792
30
0
10
11.572239899859298
20
-35.28959806580011
30
0
10
11.365799863019655
20
-35.29613597830309
30
0
10
11.164290817283822
20
-35.293688022277394
30
0
10
10.968334475478152
20
-35.283364667207984
30
0
10
10.778350078360567
20
-35.26628416681978
30
0
10
10.594594567939463
20
-35.24353595363671
30
0
10
10.417204408757428
20
-35.21615766212195
30
0
10
10.246234609752353
20
-35.1851231493173
30
0
10
10.081692456683031
20
-35.151338404539445
30
0
10
9.923564997734134
20
-35.11564242195292
30
0
10
9.771840343081271
20
-35.078810620909024
30
0
10
9.626523399148173
20
-35.041558999120895
30
0
10
9.487646873414446
20
-35.00454775444562
30
0
10
9.355278371141504
20
-34.968383553281676
30
0
10
9.229524253161767
20
-34.93361994959902
30
0
10
9.110530697020776
20
-34.90075568848228
30
0
10
8.998482141214211
20
-34.870230794643234
30
0
10
8.89359701743506
20
-34.842420487347816
30
0
10
8.79612040621863
20
-34.81762711776885
30
0
10
8.706313008793199
20
-34.79607053184376
30
0
10
8.62443564790687
20
-34.777877557130715
30
0
10
8.550728451563108
20
-34.76307172178121
30
0
10
8.485384023429084
20
-34.75156483971619
30
0
10
8.42851437509774
20
-34.74315269460663
30
0
10
8.380112304959411
20
-34.73751760823944
30
0
10
8.340009325468372
20
-34.73424096993414
30
0
10
8.30783410250542
20
-34.732828521364056
30
0
10
8.282977380731632
20
-34.73274999248118
30
0
10
8.264570929730777
20
-34.73349234673456
30
0
10
8.25148831700941
20
-34.73462254124089
30
0
10
8.242373480696921
20
-34.7358520128365
30
0
10
8.235698812622141
20
-34.737092285665256
30
0
10
8.229848397301717
20
-34.73849056458409
30
0
10
8.223215859911361
20
-34.74043682326005
30
0
10
8.214302151785807
20
-34.743539423064554
30
0
10
8.20179823466054
20
-34.748573088886936
30
0
10
8.184641268295755
20
-34.756408817655945
30
0
10
8.162039195347663
20
-34.76793812907864
30
0
10
8.133465287162181
20
-34.784003406465224
30
0
10
8.098629222931716
20
-34.80534272960185
30
0
10
8.05743361477997
20
-34.83255314774271
30
0
10
8.009924709046397
20
-34.86607228557047
30
0
10
7.956244160998095
20
-34.90617541067532
30
0
10
7.896586321032532
20
-34.952983806421315
30
0
10
7.831163166082388
20
-35.006480197541215
30
0
10
7.760177267271205
20
-35.066527596088235
30
0
10
7.683802095919627
20
-35.132888840556454
30
0
10
7.602168441640829
20
-35.205244995768595
30
0
10
7.515355587535877
20
-35.28321151283659
30
0
10
7.423386003198637
20
-35.36635157019631
30
0
10
7.326222559024944
20
-35.45418634316912
30
0
10
7.223767561015193
20
-35.546202123055345
30
0
10
7.115863215311464
20
-35.641854276964864
30
0
10
7.002293441799472
20
-35.74056805418713
30
0
10
6.882787264964295
20
-35.84173624818472
30
0
10
6.757024319581065
20
-35.94471375814991
30
0
10
6.624643313920758
20
-36.048809204875305
30
0
10
6.485254572275625
20
-36.15327398944547
30
0
10
6.338457981902622
20
-36.257289585850486
30
0
10
6.183867708182621
20
-36.35995446270296
30
0
10
6.0211447833360605
20
-36.46027282988691
30
0
10
5.850037953480104
20
-36.557148323135934
30
0
10
5.67043183148064
20
-36.64938657409116
30
0
10
5.482399391910743
20
-36.735711018436454
30
0
10
5.286253328747658
20
-36.814795802754894
30
0
10
5.08258829880603
20
-36.885317805124394
30
0
10
4.872304498661006
20
-36.94602639471341
30
0
10
4.656603461740238
20
-36.99582500922463
30
0
10
4.4369502209408695
20
-37.033854069445866
30
0
10
4.215001968519265
20
-37.05956187559434
30
0
10
3.9925106966160486
20
-37.07275051304231
30
0
10
3.771213662942209
20
-37.073587980321456
30
0
10
3.552728539228826
20
-37.062584712292015
30
0
10
3.338468606901956
20
-37.040540109154826
30
0
10
3.1295880290459412
20
-37.00847011160393
30
0
10
2.9269601425406564
20
-36.96752879210401
30
0
10
2.7311852870579263
20
-36.91893540476503
30
0
10
2.5426205658873844
20
-36.86391459859055
30
0
10
2.361422554332952
20
-36.80365318125417
30
0
10
2.1875947872264794
20
-36.73927319976491
30
0
10
2.0210338890189696
20
-36.67181878374294
30
0
10
1.861570542515382
20
-36.602253181834115
30
0
10
1.7090035250149551
20
-36.5314623807048
30
0
10
1.5631265121352094
20
-36.46026221352018
30
0
10
1.423748242275059
20
-36.389406594150486
30
0
10
1.2907070558596783
20
-36.319595229722964
30
0
10
1.1638809154136105
20
-36.251479755253214
30
0
10
1.043193901916172
20
-36.18566766687949
30
0
10
0.9286199623576489
20
-36.122723717170835
30
0
10
0.8201844108571902
20
-36.06316861071958
30
0
10
0.7179633922449751
20
-36.00747494160173
30
0
10
0.6220812171513538
20
-35.95606038837572
30
0
10
0.5327051795017518
20
-35.90927826923883
30
0
10
0.4500371826495445
20
-35.86740570260826
30
0
10
0.37430125483968923
20
-35.83062985986502
30
0
10
0.3057258783019876
20
-35.79903317631065
30
0
10
0.2445200723041706
20
-35.772578926723654
30
0
10
0.1908424777384351
20
-35.75109925865691
30
0
10
0.14476342972978296
20
-35.73428852507329
30
0
10
0.10622129476128594
20
-35.721705377975624
30
0
10
0.0749762067266716
20
-35.71278726315175
30
0
10
0.050566562881735944
20
-35.7068802923627
30
0
10
0.03227571850388361
20
-35.703285603524485
30
0
10
0.01911741137173739
20
-35.70132016307956
30
0
10
0.009847602852403714
20
-35.700385961060476
30
0
10
0.0030070211268542132
20
-35.70003779003962
30
0
10
-0.0030070211268623387
20
-35.70003779003962
30
0
10
-0.009847602852394943
20
-35.700385961060476
30
0
10
-0.019117411371743637
20
-35.70132016307956
30
0
10
-0.03227571850387473
20
-35.70328560352449
30
0
10
-0.050566562881741994
20
-35.7068802923627
30
0
10
-0.07497620672666416
20
-35.71278726315175
30
0
10
-0.10622129476128972
20
-35.72170537797562
30
0
10
-0.14476342972977008
20
-35.73428852507328
30
0
10
-0.19084247773844132
20
-35.75109925865691
30
0
10
-0.24452007230416195
20
-35.772578926723654
30
0
10
-0.30572587830197806
20
-35.79903317631065
30
0
10
-0.37430125483968035
20
-35.83062985986502
30
0
10
-0.4500371826495412
20
-35.86740570260826
30
0
10
-0.5327051795017431
20
-35.90927826923883
30
0
10
-0.6220812171513486
20
-35.95606038837571
30
0
10
-0.7179633922449662
20
-36.00747494160173
30
0
10
-0.8201844108571811
20
-36.06316861071958
30
0
10
-0.928619962357656
20
-36.122723717170835
30
0
10
-1.0431939019161465
20
-36.185667666879475
30
0
10
-1.1638809154136012
20
-36.25147975525321
30
0
10
-1.290707055859689
20
-36.31959522972298
30
0
10
-1.4237482422750298
20
-36.38940659415047
30
0
10
-1.5631265121351796
20
-36.460262213520174
30
0
10
-1.7090035250149627
20
-36.5314623807048
30
0
10
-1.8615705425153726
20
-36.602253181834115
30
0
10
-2.021033889018929
20
-36.67181878374292
30
0
10
-2.187594787226496
20
-36.739273199764924
30
0
10
-2.3614225543329326
20
-36.803653181254155
30
0
10
-2.542620565887377
20
-36.86391459859055
30
0
10
-2.731185287057906
20
-36.91893540476502
30
0
10
-2.926960142540648
20
-36.96752879210401
30
0
10
-3.129588029045917
20
-37.00847011160393
30
0
10
-3.338468606901947
20
-37.040540109154826
30
0
10
-3.5527285392287844
20
-37.06258471229201
30
0
10
-3.771213662942184
20
-37.073587980321456
30
0
10
-3.992510696616057
20
-37.07275051304231
30
0
10
-4.215001968519221
20
-37.05956187559434
30
0
10
-4.4369502209408616
20
-37.03385406944587
30
0
10
-4.656603461740245
20
-36.99582500922463
30
0
10
-4.872304498660963
20
-36.946026394713414
30
0
10
-5.082588298805976
20
-36.88531780512442
30
0
10
-5.28625332874768
20
-36.81479580275489
30
0
10
-5.482399391910722
20
-36.735711018436476
30
0
10
-5.670431831480633
20
-36.64938657409116
30
0
10
-5.850037953480086
20
-36.55714832313594
30
0
10
-6.021144783336052
20
-36.46027282988691
30
0
10
-6.183867708182628
20
-36.35995446270296
30
0
10
-6.3384579819026134
20
-36.257289585850486
30
0
10
-6.485254572275612
20
-36.153273989445495
30
0
10
-6.624643313920764
20
-36.0488092048753
30
0
10
-6.757024319581035
20
-35.94471375814994
30
0
10
-6.882787264964269
20
-35.841736248184745
30
0
10
-7.0022934417994795
20
-35.74056805418713
30
0
10
-7.115863215311455
20
-35.641854276964885
30
0
10
-7.223767561015169
20
-35.54620212305536
30
0
10
-7.326222559024938
20
-35.454186343169134
30
0
10
-7.423386003198629
20
-35.36635157019631
30
0
10
-7.515355587535873
20
-35.28321151283659
30
0
10
-7.602168441640821
20
-35.205244995768595
30
0
10
-7.683802095919624
20
-35.13288884055647
30
0
10
-7.760177267271196
20
-35.066527596088235
30
0
10
-7.831163166082387
20
-35.00648019754122
30
0
10
-7.896586321032515
20
-34.95298380642132
30
0
10
-7.956244160998095
20
-34.90617541067533
30
0
10
-8.009924709046395
20
-34.86607228557047
30
0
10
-8.057433614779969
20
-34.83255314774272
30
0
10
-8.098629222931704
20
-34.805342729601854
30
0
10
-8.133465287162187
20
-34.784003406465224
30
0
10
-8.162039195347656
20
-34.76793812907864
30
0
10
-8.184641268295746
20
-34.75640881765596
30
0
10
-8.201798234660545
20
-34.748573088886936
30
0
10
-8.214302151785798
20
-34.74353942306456
30
0
10
-8.223215859911372
20
-34.74043682326004
30
0
10
-8.229848397301708
20
-34.7384905645841
30
0
10
-8.235698812622148
20
-34.73709228566525
30
0
10
-8.242373480696914
20
-34.73585201283651
30
0
10
-8.251488317009416
20
-34.73462254124088
30
0
10
-8.264570929730766
20
-34.73349234673456
30
0
10
-8.282977380731639
20
-34.73274999248119
30
0
10
-8.307834102505414
20
-34.73282852136406
30
0
10
-8.34000932546837
20
-34.734240969934135
30
0
10
-8.3801123049594
20
-34.737517608239436
30
0
10
-8.428514375097745
20
-34.74315269460663
30
0
10
-8.48538402342907
20
-34.75156483971619
30
0
10
-8.550728451563092
20
-34.76307172178121
30
0
10
-8.624435647906877
20
-34.77787755713072
30
0
10
-8.70631300879319
20
-34.79607053184377
30
0
10
-8.796120406218623
20
-34.817627117768836
30
0
10
-8.893597017435065
20
-34.842420487347816
30
0
10
-8.998482141214204
20
-34.87023079464323
30
0
10
-9.110530697020781
20
-34.90075568848228
30
0
10
-9.229524253161758
20
-34.93361994959901
30
0
10
-9.355278371141496
20
-34.968383553281676
30
0
10
-9.487646873414453
20
-35.00454775444561
30
0
10
-9.626523399148146
20
-35.041558999120895
30
0
10
-9.771840343081232
20
-35.07881062090901
30
0
10
-9.923564997734145
20
-35.11564242195292
30
0
10
-10.081692456683014
20
-35.15133840453942
30
0
10
-10.24623460975232
20
-35.1851231493173
30
0
10
-10.417204408757438
20
-35.216157662121944
30
0
10
-10.594594567939453
20
-35.243535953636716
30
0
10
-10.77835007836056
20
-35.26628416681979
30
0
10
-10.968334475478143
20
-35.28336466720799
30
0
10
-11.1642908172838
20
-35.29368802227739
30
0
10
-11.36579986301963
20
-35.296135978303084
30
0
10
-11.572239899859287
20
-35.289598065800114
30
0
10
-11.782754707945099
20
-35.2730229814792
30
0
10
-11.996237633199538
20
-35.245483211813905
30
0
10
-12.211339767387402
20
-35.20624767793371
30
0
10
-12.426507991656607
20
-35.15485328298325
30
0
10
-12.640053854102616
20
-35.091163484500704
30
0
10
-12.850247681864884
20
-35.01540188947744
30
0
10
-13.055425831065659
20
-34.928152250751154
30
0
10
-13.254094907677807
20
-34.830322673001646
30
0
10
-13.44501688622502
20
-34.7230794242912
30
0
10
-13.627263452327943
20
-34.607761924781286
30
0
10
-13.800234996584093
20
-34.48579323708518
30
0
10
-13.963646970111707
20
-34.3585991940404
30
0
10
-14.117491576966252
20
-34.22754519659882
30
0
10
-14.261985011948218
20
-34.09389453046829
30
0
10
-14.397509916294315
20
-33.95878747860731
30
0
10
-14.524560450382578
20
-33.823237506115746
30
0
10
-14.64369452914498
20
-33.688139515594315
30
0
10
-14.755495183888717
20
-33.554285233505695
30
0
10
-14.860541122167525
20
-33.42238162768889
30
0
10
-14.959385422258581
20
-33.293069373830136
30
0
10
-15.052540789678101
20
-33.166939453327416
30
0
10
-15.140469724105973
20
-33.044546813070234
30
0
10
-15.223578115677537
20
-32.92642060595638
30
0
10
-15.302211077748241
20
-32.8130708836392
30
0
10
-15.376650148342245
20
-32.704991781794945
30
0
10
-15.447111315355675
20
-32.602661279369265
30
0
10
-15.513743630135192
20
-32.506537577778225
30
0
10
-15.576628475437499
20
-32.41705207839695
30
0
10
-15.635779858526979
20
-32.3345988782187
30
0
10
-15.691146417527708
20
-32.25952069752919
30
0
10
-15.742616156811948
20
-32.192091249294535
30
0
10
-15.790025240182255
20
-32.13249431459373
30
0
10
-15.833172408057887
20
-32.080800260328985
30
0
10
-15.871840637972372
20
-32.03694146718666
30
0
10
-15.90582737629447
20
-32.000689120236196
30
0
10
-15.934983841673011
20
-31.971634944962517
30
0
10
-15.959262375589809
20
-31.949182488505745
30
0
10
-15.978768574425564
20
-31.932553014001247
30
0
10
-15.993812254289594
20
-31.92081044416308
30
0
10
-16.004948851767768
20
-31.912907586424836
30
0
10
-16.013001682440073
20
-31.907752021872593
30
0
10
-16.019056627277354
20
-31.90428518113369
30
0
10
-16.0244248166429
20
-31.90156367077061
30
0
10
-16.03057516213051
20
-31.898829620777413
30
0
10
-16.039045385047974
20
-31.89555799263946
30
0
10
-16.051345170399454
20
-31.891473433162
30
0
10
-16.068866434955076
20
-31.88653591864974
30
0
10
-16.09281309093823
20
-31.880900817289746
30
0
10
-16.124157335158984
20
-31.874863107848874
30
0
10
-16.163623454826396
20
-31.86879648819468
30
0
10
-16.211695276156252
20
-31.86309642894033
30
0
10
-16.268640661414917
20
-31.8581330834678
30
0
10
-16.334545881188173
20
-31.854216628149537
30
0
10
-16.409353627602805
20
-31.85157493791337
30
0
10
-16.49290010069314
20
-31.850341834772124
30
0
10
-16.584948352459396
20
-31.85055341272778
30
0
10
-16.68521653384401
20
-31.852149879800997
30
0
10
-16.793400718826994
20
-31.854980677026866
30
0
10
-16.909192590661956
20
-31.858811105580394
30
0
10
-17.032292552763526
20
-31.86332917190967
30
0
10
-17.162418870828375
20
-31.86815177588309
30
0
10
-17.299313349792467
20
-31.872829698931316
30
0
10
-17.44274386307734
20
-31.8768511088277
30
0
10
-17.592503825793
20
-31.879643511403223
30
0
10
-17.74840846850341
20
-31.880574279893057
30
0
10
-17.910287549945277
20
-31.87895011383903
30
0
10
-18.077973976831455
20
-31.87401605299674
30
0
10
-18.25128772138489
20
-31.864955020954916
30
0
10
-18.430014507737738
20
-31.85088930406685
30
0
10
-18.613879063704182
20
-31.830885856675657
30
0
10
-18.80251340319069
20
-31.80396778199012
30
0
10
-18.995421696631567
20
-31.769134611471102
30
0
10
-19.19194480608375
20
-31.725393850963187
30
0
10
-19.39122935206886
20
-31.671805378628388
30
0
10
-19.59220784122708
20
-31.607538405103494
30
0
10
-19.79359724931345
20
-31.531937789331963
30
0
10
-19.993922707822147
20
-31.444592920693523
30
0
10
-20.19156994910172
20
-31.345399067060953
30
0
10
-20.384864941376964
20
-31.234599419416433
30
0
10
-20.57217273355506
20
-31.112797332080998
30
0
10
-20.75200191362413
20
-30.98093292841099
30
0
10
-20.923098461869397
20
-30.84022538194541
30
0
10
-21.084514457991006
20
-30.692089585602634
30
0
10
-21.235642691567705
20
-30.538041041289098
30
0
10
-21.376215748519055
20
-30.379603999002782
30
0
10
-21.506275026852478
20
-30.218235161571126
30
0
10
-21.626119428150307
20
-30.05527011624569
30
0
10
-21.736244561663696
20
-29.891894074970335
30
0
10
-21.837281796137642
20
-29.729134116507907
30
0
10
-21.929943617015283
20
-29.56786765482104
30
0
10
-22.0149786652546
20
-29.40884121373406
30
0
10
-22.09313730725573
20
-29.252694210031688
30
0
10
-22.165146905885095
20
-29.099983688546313
30
0
10
-22.231695089340985
20
-28.95120730500313
30
0
10
-22.29341904681927
20
-28.80682301593888
30
0
10
-22.350898988614915
20
-28.667264790455906
30
0
10
-22.404654205757563
20
-28.53295420239629
30
0
10
-22.455140525259367
20
-28.404308046511826
30
0
10
-22.502748313215655
20
-28.28174221721756
30
0
10
-22.54780050292397
20
-28.165672057697915
30
0
10
-22.590550419131333
20
-28.056509283067513
30
0
10
-22.631179447390384
20
-27.954655446378734
30
0
10
-22.66979487999207
20
-27.86049178813346
30
0
10
-22.70642857620045
20
-27.774365228313748
30
0
10
-22.74103741424873
20
-27.696570273057226
30
0
10
-22.773506875543124
20
-27.62732677661674
30
0
10
-22.80365944362645
20
-27.566753893906295
30
0
10
-22.8312697277117
20
-27.514841246870926
30
0
10
-22.856088177848125
20
-27.471419341266845
30
0
10
-22.877874736507852
20
-27.43613255403157
30
0
10
-22.896442551166633
20
-27.408419356996884
30
0
10
-22.911709829953747
20
-27.387505438537193
30
0
10
-22.923755184307307
20
-27.372415436340507
30
0
10
-22.93286890194273
20
-27.36200748190538
30
0
10
-22.93959050331143
20
-27.355031352176567
30
0
10
-22.944722837094368
20
-27.35020607006178
30
0
10
-22.949315722452283
20
-27.346307512590556
30
0
10
-22.954617645193373
20
-27.342252813487566
30
0
10
-22.962000889505926
20
-27.337167777039582
30
0
10
-22.972871481952822
20
-27.330426759856156
30
0
10
-22.988578321779396
20
-27.321660574000422
30
0
10
-23.010334948445458
20
-27.310734796260643
30
0
10
-23.039163227679786
20
-27.297706191361947
30
0
10
-23.07586260602502
20
-27.282767432107164
30
0
10
-23.121003415850208
20
-27.266189881793775
30
0
10
-23.17493926517596
20
-27.248271821169713
30
0
10
-23.237832142411804
20
-27.22929639328148
30
0
10
-23.309684115698012
20
-27.20950070310684
30
0
10
-23.3903707212018
20
-27.18905546851103
30
0
10
-23.479672668562937
20
-27.16805346963933
30
0
10
-23.577303908182486
20
-27.146504623693332
30
0
10
-23.682935193652128
20
-27.124335572160092
30
0
10
-23.79621298890978
20
-27.10139197956888
30
0
10
-23.916773960691497
20
-27.077442143582775
30
0
10
-24.044255442935704
20
-27.052180911269947
30
0
10
-24.178302240901143
20
-27.025233245152293
30
0
10
-24.31857002417219
20
-26.9961570799253
30
0
10
-24.464725388407153
20
-26.964445371615355
30
0
10
-24.616442483032255
20
-26.929527490058728
30
0
10
-24.773395939363763
20
-26.890770370108775
30
0
10
-24.93524972809026
20
-26.84748014060088
30
0
10
-25.10164157515081
20
-26.798905305872765
30
0
10
-25.27216273500601
20
-26.744242954305207
30
0
10
-25.446333338089733
20
-26.68264986716029
30
0
10
-25.6235742724189
20
-26.613260699307567
30
0
10
-25.803177671559812
20
-26.535215431883945
30
0
10
-25.98427951471972
20
-26.447697819893726
30
0
10
-26.165839386217343
20
-26.349985318006883
30
0
10
-26.346633650311297
20
-26.241508795456713
30
0
10
-26.525268517582756
20
-26.121917337079022
30
0
10
-26.70021800082096
20
-25.99114010756962
30
0
10
-26.86988816049947
20
-25.849434672223598
30
0
10
-27.03270362135951
20
-25.69741064746503
30
0
10
-27.18720637937052
20
-25.53602014316544
30
0
10
-27.33215243477758
20
-25.36651219957272
30
0
10
-27.46659072921675
20
-25.19035595069898
30
0
10
-27.589912053913043
20
-25.009144136376204
30
0
10
-27.70186213057794
20
-24.82449242415379
30
0
10
-27.802520674277854
20
-24.63794958920245
30
0
10
-27.892254409680753
20
-24.450929480676198
30
0
10
-27.971655125825816
20
-24.264669723425577
30
0
10
-28.04147373546131
20
-24.08021637995465
30
0
10
-28.102558890933892
20
-23.898429794756083
30
0
10
-28.15580534986291
20
-23.720005026418704
30
0
10
-28.202114114451856
20
-23.545500300979576
30
0
10
-28.24236401746354
20
-23.37536808053417
30
0
10
-28.277393045724892
20
-23.20998493149659
30
0
10
-28.307987128678686
20
-23.049677902678514
30
0
10
-28.334874111840605
20
-22.89474633127463
30
0
10
-28.358720930855824
20
-22.74547881619029
30
0
10
-28.38013241494674
20
-22.602165570228035
30
0
10
-28.399650566645224
20
-22.46510656504806
30
0
10
-28.417753535356503
20
-22.334615898608337
30
0
10
-28.434853813443436
20
-22.211022713121643
30
0
10
-28.451295446898367
20
-22.094668824158525
30
0
10
-28.46735029227703
20
-21.985903026562667
30
0
10
-28.483213596149326
20
-21.885071852245293
30
0
10
-28.498999450808103
20
-21.79250640267102
30
0
10
-28.51473701135073
20
-21.708504809149392
30
0
10
-28.53036874938167
20
-21.633309947593236
30
0
10
-28.54575244229365
20
-21.567082329646098
30
0
10
-28.560668980600937
20
-21.50986869606926
30
0
10
-28.574838278289924
20
-21.46156781958122
30
0
10
-28.58794537850262
20
-21.421896381508933
30
0
10
-28.59967799900233
20
-21.390359374234716
30
0
10
-28.60977503877725
20
-21.366230936559226
30
0
10
-28.618082944053864
20
-21.348552251749304
30
0
10
-28.624613667442304
20
-21.33615240218871
30
0
10
-28.629595101076003
20
-21.327695322210197
30
0
10
-28.63350354605822
20
-21.321751254357814
30
0
10
-28.637069127623406
20
-21.31688534663251
30
0
10
-28.64124944335981
20
-21.311751021688135
30
0
10
-28.647173244413043
20
-21.305173477425736
30
0
10
-28.656062572150706
20
-21.296210300947614
30
0
10
-28.669146212153812
20
-21.284181316979236
30
0
10
-28.687578146862805
20
-21.268666634272034
30
0
10
-28.71237196875819
20
-21.24947805842203
30
0
10
-28.744357350730102
20
-21.22661285354423
30
0
10
-28.784159523112425
20
-21.200199723269506
30
0
10
-28.8321987412607
20
-21.170445424292975
30
0
10
-28.888704575708633
20
-21.137587747311894
30
0
10
-28.953739392239
20
-21.101857772193288
30
0
10
-29.027226070284375
20
-21.063452011635555
30
0
10
-29.108976225832713
20
-21.022513555719872
30
0
10
-29.198716490310332
20
-20.97912056999712
30
0
10
-29.296111480307015
20
-20.933280291018466
30
0
10
-29.40078287351665
20
-20.884926792744494
30
0
10
-29.512324489248538
20
-20.833921093387115
30
0
10
-29.630313512767827
20
-20.780052522366535
30
0
10
-29.75431806993184
20
-20.723040611578867
30
0
10
-29.883901314810238
20
-20.66253709284966
30
0
10
-30.01862208973232
20
-20.598127876987885
30
0
10
-30.15803209681638
20
-20.52933517435291
30
0
10
-30.301669421149928
20
-20.455620211071732
30
0
10
-30.449048209878224
20
-20.376387313766728
30
0
10
-30.59964438833354
20
-20.29099048104763
30
0
10
-30.75287754421476
20
-20.198743910401372
30
0
10
-30.90808959930643
20
-20.09893824465447
30
0
10
-31.064521668799053
20
-19.990864430223947
30
0
10
-31.221291587042895
20
-19.873846867182966
30
0
10
-31.37737585978937
20
-19.74728676132266
30
0
10
-31.531601026738123
20
-19.610715057432934
30
0
10
-31.682650123811502
20
-19.46385196936014
30
0
10
-31.829089507954848
20
-19.30666715164737
30
0
10
-31.96941917374767
20
-19.139431646805054
30
0
10
-32.102145659403966
20
-18.96275099049382
30
0
10
-32.2258712738626
20
-18.77756949250075
30
0
10
-32.339388130702055
20
-18.585139487647353
30
0
10
-32.44176232179366
20
-18.386955893907462
30
0
10
-32.53239411731012
20
-18.184663993724502
30
0
10
-32.611044639185074
20
-17.97995442762614
30
0
10
-32.677826645657
20
-17.774461779077914
30
0
10
-32.73316441582387
20
-17.569681125475267
30
0
10
-32.77773288228906
20
-17.36691158617684
30
0
10
-32.81238793912504
20
-17.167229361922626
30
0
10
-32.83809851192875
20
-16.971487152488095
30
0
10
-32.85588774619821
20
-16.780333411135935
30
0
10
-32.866786976717194
20
-16.594243821949334
30
0
10
-32.87180302912625
20
-16.41355809430118
30
0
10
-32.871897343932886
20
-16.238516820546703
30
0
10
-32.8679744002889
20
-16.069295011819868
30
0
10
-32.86087669731097
20
-15.906030555407703
30
0
10
-32.85138380968959
20
-15.748847031459634
30
0
10
-32.84021350760855
20
-15.597871073192504
30
0
10
-32.828023442649844
20
-15.453244830600752
30
0
10
-32.81541235784672
20
-15.315134206183005
30
0
10
-32.80292014774356
20
-15.183733466001671
30
0
10
-32.791026376440385
20
-15.059266661464738
30
0
10
-32.78014708101424
20
-14.941986074905419
30
0
10
-32.77062987636685
20
-14.832167657410888
30
0
10
-32.76274757072769
20
-14.730103184935839
30
0
10
-32.75669073383234
20
-14.63608864491227
30
0
10
-32.752559963078276
20
-14.550408217920989
30
0
10
-32.75035898610338
20
-14.473313194608343
30
0
10
-32.74999021607599
20
-14.404995348166725
30
0
10
-32.751254888924976
20
-14.34555476859493
30
0
10
-32.753860341537404
20
-14.294963056588966
30
0
10
-32.757437131251706
20
-14.253024123381373
30
0
10
-32.76156826531916
20
-14.219336573082398
30
0
10
-32.76583150492999
20
-14.193263463262191
30
0
10
-32.76985336091301
20
-14.173916579609028
30
0
10
-32.773370172227004
20
-14.160162436883319
30
0
10
-32.776288234715516
20
-14.150655282460688
30
0
10
-32.7787325093795
20
-14.143898153435225
30
0
10
-32.78107331344433
20
-14.138327151036128
30
0
10
-32.78392338599406
20
-14.132408175558888
30
0
10
-32.78810345638544
20
-14.124731537467499
30
0
10
-32.79458126542907
20
-14.114089759041924
30
0
10
-32.80439458170068
20
-14.099527729384173
30
0
10
-32.81857126445877
20
-14.080360791304862
30
0
10
-32.83805833278397
20
-14.056163037211215
30
0
10
-32.86366821543473
20
-14.026733016952015
30
0
10
-32.896045556552714
20
-13.99204621699648
30
0
10
-32.93565371446843
20
-13.952203247149496
30
0
10
-32.98277731810684
20
-13.907380600631402
30
0
10
-33.03753608619692
20
-13.85778821201564
30
0
10
-33.099905212013205
20
-13.803635630811224
30
0
10
-33.169738438054814
20
-13.745106859653632
30
0
10
-33.24679101827069
20
-13.682342845721204
30
0
10
-33.330740777552414
20
-13.615430142651572
30
0
10
-33.42120627672973
20
-13.544394194727253
30
0
10
-33.51776163860719
20
-13.469195865804567
30
0
10
-33.61994791312484
20
-13.389730118173757
30
0
10
-33.727281009863674
20
-13.305826065809445
30
0
10
-33.83925626005836
20
-13.217247945989824
30
0
10
-33.95534963903704
20
-13.123696863029588
30
0
10
-34.0750156284188
20
-13.024813462476262
30
0
10
-34.19768166741673
20
-12.920182002911567
30
0
10
-34.3227391778393
20
-12.809336610614764
30
0
10
-34.449531296606644
20
-12.691770821129433
30
0
10
-34.57733776630827
20
-12.566951797416792
30
0
10
-34.70535796896328
20
-12.434340795074668
30
0
10
-34.83269386821
20
-12.293421400975777
30
0
10
-34.95833561978493
20
-12.143736634647345
30
0
10
-35.08115368104574
20
-11.984934982065544
30
0
10
-35.19990210395658
20
-11.816823687442556
30
0
10
-35.313237872941194
20
-11.639425187482157
30
0
10
-35.419760103787304
20
-11.453029781198449
30
0
10
-35.51807023630645
20
-11.258235252800787
30
0
10
-35.606850075336034
20
-11.05596331140955
30
0
10
-35.68494946315744
20
-10.84744445662744
30
0
10
-35.75147106789719
20
-10.634167657221772
30
0
10
-35.805838086594505
20
-10.417798272584662
30
0
10
-35.84783280052939
20
-10.2000749335647
30
0
10
-35.8775996517743
20
-9.982701085835469
30
0
10
-35.89561403949902
20
-9.767247735250491
30
0
10
-35.90262480050476
20
-9.555080429585452
30
0
10
-35.89958225515099
20
-9.34731718206137
30
0
10
-35.88756404953646
20
-9.14481724452695
30
0
10
-35.86770850729301
20
-8.948195406727619
30
0
10
-35.841161291923434
20
-8.757853809649944
30
0
10
-35.80903731604725
20
-8.574022992312688
30
0
10
-35.77239692526985
20
-8.39680525584379
30
0
10
-35.732233715184414
20
-8.226215500743276
30
0
10
-35.689470751596275
20
-8.062216755212425
30
0
10
-35.644962106120204
20
-7.904749266622556
30
0
10
-35.599497138490264
20
-7.753753150137769
30
0
10
-35.55380558903237
20
-7.609185221738257
30
0
10
-35.508562132708064
20
-7.471030902035945
30
0
10
-35.46438952007125
20
-7.339312084791095
30
0
10
-35.42185977769355
20
-7.214091719905537
30
0
10
-35.38149317981746
20
-7.095475634290919
30
0
10
-35.34375486728167
20
-6.9836118480062215
30
0
10
-35.309049117510995
20
-6.878687361763184
30
0
10
-35.277711400530535
20
-6.780922111154485
30
0
10
-35.249998530786456
20
-6.690559520097422
30
0
10
-35.22607748187095
20
-6.60785286984753
30
0
10
-35.20601380347344
20
-6.5330465806351254
30
0
10
-35.189761081712845
20
-6.466351559612063
30
0
10
-35.17715349243197
20
-6.407914110368993
30
0
10
-35.167904123093855
20
-6.357778650343057
30
0
10
-35.16161219851481
20
-6.315845742233499
30
0
10
-35.15778234831873
20
-6.2818287122716745
30
0
10
-35.15585824152872
20
-6.2552141955875245
30
0
10
-35.155270983077095
20
-6.235233815453906
30
0
10
-35.15549958303191
20
-6.220855075840609
30
0
10
-35.15613703987866
20
-6.21079853672801
30
0
10
-35.15695219135913
20
-6.20358488451636
30
0
10
-35.15793591224156
20
-6.1976098716520385
30
0
10
-35.15932165844488
20
-6.191238641210118
30
0
10
-35.16157495303762
20
-6.182905813176939
30
0
10
-35.1653529892352
20
-6.1712058890099
30
0
10
-35.17144190714349
20
-6.154960839641358
30
0
10
-35.18068333846464
20
-6.133257320512303
30
0
10
-35.19390242417242
20
-6.105452728340767
30
0
10
-35.21184705396118
20
-6.071155052538218
30
0
10
-35.2351439342797
20
-6.030184780569984
30
0
10
-35.26427284859554
20
-5.982527771175267
30
0
10
-35.29955724812874
20
-5.92828668830371
30
0
10
-35.34116752114759
20
-5.867636302901452
30
0
10
-35.38913278831965
20
-5.80078559612139
30
0
10
-35.443357440016236
20
-5.727947665139866
30
0
10
-35.50363942288636
20
-5.649317129937116
30
0
10
-35.56968816055001
20
-5.565054027860965
30
0
10
-35.64114076130685
20
-5.475272921337373
30
0
10
-35.71757574508692
20
-5.380035975829096
30
0
10
-35.798523907601705
20
-5.279348961676012
30
0
10
-35.88347616447604
20
-5.173159407765984
30
0
10
-35.97188832818721
20
-5.061356437573991
30
0
10
-36.06318281329016
20
-4.943772126693577
30
0
10
-36.15674728546371
20
-4.820184529302651
30
0
10
-36.251930310368685
20
-4.6903228284534
30
0
10
-36.34803416273575
20
-4.553875366938411
30
0
10
-36.44430516988669
20
-4.410501592828691
30
0
10
-36.53992233148512
20
-4.259849162508892
30
0
10
-36.633985511993366
20
-4.101577504241263
30
0
10
-36.72550524493506
20
-3.93538893531309
30
0
10
-36.81339705310353
20
-3.7610677901098484
30
0
10
-36.896484002745304
20
-3.5785268010595663
30
0
10
-36.97351165950046
20
-3.387858103996408
30
0
10
-37.04317926201762
20
-3.189383836804458
30
0
10
-37.10418932175659
20
-2.98369881447677
30
0
10
-37.15531475280478
20
-2.771696023461045
30
0
10
-37.195478306641824
20
-2.5545657471786067
30
0
10
-37.22383453430311
20
-2.3337618941256055
30
0
10
-37.239841332492865
20
-2.110934650848217
30
0
10
-37.24330797946876
20
-1.887835799490196
30
0
10
-37.23441019273393
20
-1.6662097065361978
30
0
10
-37.213669390192855
20
-1.447686667815985
30
0
10
-37.18190087346865
20
-1.2336945414937341
30
0
10
-37.14014153024961
20
-1.0253997519046203
30
0
10
-37.089570143430976
20
-0.8236817182970638
30
0
10
-37.03143228550846
20
-0.6291380149914071
30
0
10
-36.96697818136439
20
-0.4421129600026845
30
0
10
-36.89741749612496
20
-0.26274051485184824
30
0
10
-36.8238911430282
20
-0.09099293733023028
30
0
10
-36.74745763786107
20
0.07327140472148264
30
0
10
-36.66909033369694
20
0.2302652502368283
30
0
10
-36.58968174145479
20
0.38023672479279846
30
0
10
-36.510051645998914
20
0.5234411162228698
30
0
10
-36.430956487609954
20
0.6601195856100737
30
0
10
-36.3530982427765
20
0.7904837669150611
30
0
10
-36.277131676041044
20
0.914705081416002
30
0
10
-36.20366930381108
20
1.0329076890471536
30
0
10
-36.13328372099532
20
1.1451642160034954
30
0
10
-36.06650712574027
20
1.2514936721297358
30
0
10
-36.00382797832301
20
1.3518612678930562
30
0
10
-35.945684790378536
20
1.4461801438080042
30
0
10
-35.89245710263612
20
1.5343153286955524
30
0
10
-35.8444538163195
20
1.6160905397598695
30
0
10
-35.80189923973134
20
1.6912987086663498
30
0
10
-35.76491754056416
20
1.7597173233272452
30
0
10
-35.733516789360685
20
1.8211297427085804
30
0
10
-35.70757444461532
20
1.875353461678589
30
0
10
-35.68682691033228
20
1.9222757337466299
30
0
10
-35.67086654047516
20
1.9618958613580624
30
0
10
-35.65914989343051
20
1.9943717664898348
30
0
10
-35.651020760347635
20
2.0200662677357766
30
0
10
-35.64575009096266
20
2.0395862193126506
30
0
10
-35.64259219018717
20
2.0538060641928553
30
0
10
-35.640852686780434
20
2.063867388172707
30
0
10
-35.63995966511077
20
2.071148545493435
30
0
10
-35.639526443955816
20
2.0772034671421618
30
0
10
-35.639394258538765
20
2.083675351590133
30
0
10
-35.639646266703366
20
2.09219706042718
30
0
10
-35.640590211639804
20
2.104293464302106
30
0
10
-35.64271382960044
20
2.121300364995681
30
0
10
-35.646622397495875
20
2.144310235306639
30
0
10
-35.65297009617106
20
2.1741486022677314
30
0
10
-35.66239590510121
20
2.2113787022767055
30
0
10
-35.67547153176553
20
2.25632777356116
30
0
10
-35.692664902086335
20
2.309126643553139
30
0
10
-35.714319259948994
20
2.3697547449638874
30
0
10
-35.74064560725179
20
2.4380844755628686
30
0
10
-35.771725139516604
20
2.513921009604193
30
0
10
-35.807518216774675
20
2.5970356495486318
30
0
10
-35.847876865073
20
2.6871922779116204
30
0
10
-35.89255849029856
20
2.784167383227726
30
0
10
-35.94123917578341
20
2.887764580466344
30
0
10
-35.99352551147639
20
2.997824658763589
30
0
10
-36.048964328683375
20
3.1142320927882867
30
0
10
-36.10705000101811
20
3.2369187419258787
30
0
10
-36.16722915225048
20
3.365865193693762
30
0
10
-36.22890272603134
20
3.501099917800894
30
0
10
-36.29142546316195
20
3.6426961018728004
30
0
10
-36.35410294087659
20
3.7907657496216016
30
0
10
-36.41618649684701
20
3.9454503514527834
30
0
10
-36.47686662821202
20
4.106907214348411
30
0
10
-36.535265856377066
20
4.275290414441901
30
0
10
-36.59043259661494
20
4.4507253961510616
30
0
10
-36.64133824244006
20
4.633276603562687
30
0
10
-36.68688037199028
20
4.822908329121896
30
0
10
-36.72589550715423
20
5.019440313546504
30
0
10
-36.757184888084666
20
5.222501536299049
30
0
10
-36.77955586969232
20
5.4314878878782125
30
0
10
-36.791879458787626
20
5.645531484671033
30
0
10
-36.79316113076616
20
5.863490421886823
30
0
10
-36.78261788001764
20
6.083966785321973
30
0
10
-36.75975062253709
20
6.305357108715863
30
0
10
-36.72439916707665
20
6.525933401939734
30
0
10
-36.67676835304653
20
6.74394581328949
30
0
10
-36.61741890171645
20
6.957732242296471
30
0
10
-36.54722380148478
20
7.165818013160427
30
0
10
-36.46729826084998
20
7.3669910280564945
30
0
10
-36.3789159907547
20
7.5603437950518755
30
0
10
-36.28342552450501
20
7.745281135838802
30
0
10
-36.18217775287155
20
7.921498764580303
30
0
10
-36.07647132924734
20
8.088941695857109
30
0
10
-35.96751785321637
20
8.24775228342483
30
0
10
-35.85642505815352
20
8.398216318335516
30
0
10
-35.744194123745054
20
8.540713129854922
30
0
10
-35.63172658113241
20
8.67567301279499
30
0
10
-35.519836624472866
20
8.80354315080928
30
0
10
-35.40926549190942
20
8.92476173891187
30
0
10
-35.300695548424564
20
9.039739195850771
30
0
10
-35.19476256524119
20
9.148845044804117
30
0
10
-35.09206534850328
20
9.252399055233337
30
0
10
-34.99317231194035
20
9.3506654356655
30
0
10
-34.89862484566715
20
9.443849148274824
30
0
10
-34.80893745361575
20
9.532093725029544
30
0
10
-34.724594664206016
20
9.615480276796914
30
0
10
-34.64604470821948
20
9.69402769562819
30
0
10
-34.573689947349024
20
9.767694359957337
30
0
10
-34.50787407009254
20
9.83638196563324
30
0
10
-34.448866195849845
20
9.899942415385775
30
0
10
-34.396842294572586
20
9.958188977293627
30
0
10
-34.35186478738952
20
10.010913107892934
30
0
10
-34.31386187403891
20
10.057908323418967
30
0
10
-34.28260901734581
20
10.09900214488045
30
0
10
-34.25771599219693
20
10.1340962678196
30
0
10
-34.238623727562874
20
10.163213580598542
30
0
10
-34.224615432665296
20
10.18654848353858
30
0
10
-34.21484570770692
20
10.204514431704105
30
0
10
-34.20838909092298
20
10.217780400886173
30
0
10
-34.204305765274746
20
10.227287048415034
30
0
10
-34.201717584424046
20
10.234234710076233
30
0
10
-34.199883534899854
20
10.240039509968348
30
0
10
-34.19826190045544
20
10.246260165887307
30
0
10
-34.19654792845356
20
10.254504789385292
30
0
10
-34.19468065861348
20
10.266331785611728
30
0
10
-34.19281926584905
20
10.28316006696749
30
0
10
-34.19129550350667
20
10.30620088512333
30
0
10
-34.19055264579914
20
10.336417931390473
30
0
10
-34.19108193858196
20
10.374516085713022
30
0
10
-34.19336550154435
20
10.420954231270466
30
0
10
-34.197831173150206
20
10.475974882974786
30
0
10
-34.204821277186426
20
10.539642966563697
30
0
10
-34.21457458590729
20
10.61188724253186
30
0
10
-34.22721916090461
20
10.692539742968474
30
0
10
-34.24277315244311
20
10.781370498105268
30
0
10
-34.2611507231654
20
10.878116382992392
30
0
10
-34.28217071094474
20
10.982503980690923
30
0
10
-34.30556621293484
20
11.094266966943426
30
0
10
-34.3309938105033
20
11.213158774612344
30
0
10
-34.35804159580015
20
11.338961307514177
30
0
10
-34.38623549239097
20
11.471490336976174
30
0
10
-34.415043602172666
20
11.610597997453707
30
0
10
-34.44387849041458
20
11.756172542549722
30
0
10
-34.47209747725542
20
11.90813525629306
30
0
10
-34.49900117550822
20
12.066434156499763
30
0
10
-34.52383073818221
20
12.231033900600275
30
0
10
-34.54576458732848
20
12.401901145436923
30
0
10
-34.563915809867005
20
12.578984578707487
30
0
10
-34.57733192241451
20
12.76218901527965
30
0
10
-34.584999276395976
20
12.951343444427053
30
0
10
-34.585854874940736
20
13.146163835038633
30
0
10
-34.57880858743028
20
13.346212920859804
30
0
10
-34.562778367849205
20
13.550861036940683
30
0
10
-34.53673977093307
20
13.759254076071217
30
0
10
-34.49978859448445
20
13.970296197247782
30
0
10
-34.451211978050424
20
14.182655210151086
30
0
10
-34.3905594331687
20
14.394796736410962
30
0
10
-34.31770232378654
20
14.605048917162275
30
0
10
-34.23286974885252
20
14.811693146493845
30
0
10
-34.13665162073369
20
15.013069725197312
30
0
10
-34.02996577861343
20
15.207682760705165
30
0
10
-33.91399355307456
20
15.394288003949743
30
0
10
-33.790094769566686
20
15.57195107666299
30
0
10
-33.65971654574852
20
15.740070377430158
30
0
10
-33.524309591629304
20
15.898366410433082
30
0
10
-33.385261873420674
20
16.04684500787634
30
0
10
-33.243854247196936
20
16.185744656010375
30
0
10
-33.10123781356766
20
16.31547795405681
30
0
10
-32.95842941135814
20
16.43657509888244
30
0
10
-32.81632013071162
20
16.54963439234453
30
0
10
-32.675691651065144
20
16.655282049565933
30
0
10
-32.53723602129825
20
16.754141541174636
30
0
10
-32.4015756592312
20
16.8468114438153
30
0
10
-32.26928148396678
20
16.933850184952817
30
0
10
-32.140888015250084
20
17.015765949602056
30
0
10
-32.01690492111163
20
17.0930101752275
30
0
10
-31.897824888190087
20
17.165973351772024
30
0
10
-31.784127881114717
20
17.234982176224253
30
0
10
-31.676281907368633
20
17.300297440010194
30
0
10
-31.574740365779455
20
17.362112338769922
30
0
10
-31.479935975983828
20
17.4205511923824
30
0
10
-31.39227120390212
20
17.475668861567936
30
0
10
-31.312105055991655
20
17.5274514591368
30
0
10
-31.239736160212004
20
17.57581928339692
30
0
10
-31.17538224034359
20
17.620633233707963
30
0
10
-31.119156484566794
20
17.66170625696409
30
0
10
-31.071041963737215
20
17.698821526404444
30
0
10
-31.030866188095278
20
17.731758923921863
30
0
10
-30.9982790387336
20
17.760330792600794
30
0
10
-30.972738467174157
20
17.78442665712078
30
0
10
-30.953509136381435
20
17.8040645843148
30
0
10
-30.93967903592104
20
17.81944422719436
30
0
10
-30.930197491177474
20
17.830993900359317
30
0
10
-30.923934634819496
20
17.83940221762726
30
0
10
-30.919757685174716
20
17.845625009475985
30
0
10
-30.91661446373842
20
17.85086122152962
30
0
10
-30.913611236348085
20
17.856497125549353
30
0
10
-30.910071770144096
20
17.864025057873892
30
0
10
-30.90556799275613
20
17.874948779965226
30
0
10
-30.89991883218118
20
17.890690320445042
30
0
10
-30.893160578043357
20
17.912511908912485
30
0
10
-30.885497212811448
20
17.941462078734673
30
0
10
-30.87724131804429
20
17.97834906756493
30
0
10
-30.868755388161116
20
18.023739285634296
30
0
10
-30.860400686966376
20
18.077975147607454
30
0
10
-30.85249745990858
20
18.141205277583214
30
0
10
-30.845297389416086
20
18.21342054922308
30
0
10
-30.8389671607396
20
18.294490856935013
30
0
10
-30.833580948628274
20
18.384199232806814
30
0
10
-30.829119337027254
20
18.48227146728291
30
0
10
-30.82547236246072
20
18.588400548102346
30
0
10
-30.82244477872432
20
18.70226596965993
30
0
10
-30.81976210531723
20
18.823548346849755
30
0
10
-30.817076450912964
20
18.951939888059414
30
0
10
-30.813971460154512
20
19.087151230734584
30
0
10
-30.80996601775517
20
19.228914989801336
30
0
10
-30.80451657881691
20
19.376986163740185
30
0
10
-30.79701820816136
20
19.531139319991226
30
0
10
-30.78680463683113
20
19.691162268905376
30
0
10
-30.77314791158202
20
19.856845764429185
30
0
10
-30.755258546978443
20
20.02796868207421
30
0
10
-30.73228749781515
20
20.204278180552517
30
0
10
-30.70333173057538
20
20.385464633292358
30
0
10
-30.667445615779837
20
20.571131713355214
30
0
10
-30.62366064710167
20
20.760763011105315
30
0
10
-30.57101589479921
20
20.953687976076694
30
0
10
-30.50860083544643
20
21.149051680354876
30
0
10
-30.435610500521985
20
21.34579455403946
30
0
10
-30.351410162097043
20
21.542649234973066
30
0
10
-30.255603317300586
20
21.738161220743425
30
0
10
-30.148093375984566
20
21.93073743381575
30
0
10
-30.02912749860215
20
22.118721988032284
30
0
10
-29.899311810073474
20
22.300492215738117
30
0
10
-29.759591377534605
20
22.474562203852564
30
0
10
-29.611195207975108
20
22.639677901744157
30
0
10
-29.455554065988952
20
22.794888829261847
30
0
10
-29.29420455312343
20
22.93958646375155
30
0
10
-29.12869474731628
20
23.073506773591127
30
0
10
-28.960504486728663
20
23.19670152708658
30
0
10
-28.79098838261553
20
23.30948780391636
30
0
10
-28.621343890871756
20
23.412386707302367
30
0
10
-28.452602028625975
20
23.506061062361525
30
0
10
-28.285635495616923
20
23.59125907260594
30
0
10
-28.121178068256544
20
23.668767728189852
30
0
10
-27.959849649319242
20
23.739377068926515
30
0
10
-27.802182602654792
20
23.803854568942054
30
0
10
-27.648646422721036
20
23.862927924120953
30
0
10
-27.49966904019035
20
23.91727419349558
30
0
10
-27.355654000627048
20
23.967513331721634
30
0
10
-27.21699335782459
20
24.014204448543225
30
0
10
-27.08407644790301
20
24.057843503783992
30
0
10
-26.95729482673255
20
24.098861515149313
30
0
10
-26.837043630108987
20
24.137622689176332
30
0
10
-26.72371950927711
20
24.174422180914885
30
0
10
-26.617715147724702
20
24.20948346000669
30
0
10
-26.519410215662212
20
24.24295553185765
30
0
10
-26.429158503517215
20
24.27491055502643
30
0
10
-26.347270939798452
20
24.305342725433885
30
0
10
-26.27399429928435
20
24.33416966401943
30
0
10
-26.20948571538568
20
24.36123791726532
30
0
10
-26.153783700496533
20
24.38633448420454
30
0
10
-26.10677730357695
20
24.409206383096087
30
0
10
-26.06817628019532
20
24.42958996684826
30
0
10
-26.037486567719036
20
24.447250755977024
30
0
10
-26.013996600416327
20
24.462032798844053
30
0
10
-25.99678050853253
20
24.473914003694716
30
0
10
-25.98472336094548
20
24.483060894812798
30
0
10
-25.9765708418388
20
24.489873667193464
30
0
10
-25.971001167574656
20
24.495011424677095
30
0
10
-25.96671158497036
20
24.49938914625288
30
0
10
-25.96250716716618
20
24.50414253240503
30
0
10
-25.957377719149637
20
24.510563497029906
30
0
10
-25.95055050609866
20
24.52001564516378
30
0
10
-25.94151180812542
20
24.53384331711824
30
0
10
-25.929997160486774
20
24.55328826995566
30
0
10
-25.915956222418032
20
24.57942494559442
30
0
10
-25.899501798226623
20
24.61312002498255
30
0
10
-25.880853122197543
20
24.65501654761021
30
0
10
-25.860281760757914
20
24.705538805134736
30
0
10
-25.838065568884655
20
24.764912126358208
30
0
10
-25.81445317221311
20
24.83319138000216
30
0
10
-25.789639119564406
20
24.910292920534143
30
0
10
-25.763748393663324
20
24.99602612266828
30
0
10
-25.73682829662372
20
25.09012208910238
30
0
10
-25.708845617634854
20
25.1922582949189
30
0
10
-25.67968720798297
20
25.302078756910436
30
0
10
-25.64916245004471
20
25.41920980610316
30
0
10
-25.61700649674085
20
25.5432717663076
30
0
10
-25.582883518715473
20
25.673886879484414
30
0
10
-25.546389511469943
20
25.810683738838375
30
0
10
-25.507054491726194
20
25.953298346316224
30
0
10
-25.464344172030966
20
26.10137174358765
30
0
10
-25.417661470135087
20
26.254544009715854
30
0
10
-25.36634850807618
20
26.412444311428825
30
0
10
-25.309690099173963
20
26.574676679055905
30
0
10
-25.24692010437719
20
26.74080132257985
30
0
10
-25.1772324246778
20
26.910311670946868
30
0
10
-25.099798695465694
20
27.082607988762145
30
0
10
-25.013794808143984
20
27.256969445895546
30
0
10
-24.91843798481345
20
27.432527857286644
30
0
10
-24.81303502410177
20
27.608247794355723
30
0
10
-24.697040335622496
20
27.782919005879677
30
0
10
-24.570119526986417
20
27.955167468028915
30
0
10
-24.432211048437395
20
28.123490213517915
30
0
10
-24.283575683855585
20
28.28631588557476
30
0
10
-24.12482279176913
20
28.442087873416174
30
0
10
-23.95690427234271
20
28.58936100083055
30
0
10
-23.78107251991378
20
28.72689796283797
30
0
10
-23.598805999720806
20
28.853750044841345
30
0
10
-23.411713264143348
20
28.969309183349733
30
0
10
-23.221430686928414
20
29.073324543072086
30
0
10
-23.029529458664143
20
29.165884398074628
30
0
10
-22.83744370068381
20
29.247370644842082
30
0
10
-22.64642562375297
20
29.318396915700433
30
0
10
-22.457527660910376
20
29.37974157596918
30
0
10
-22.271607090609667
20
29.432284682609826
30
0
10
-22.089346482491063
20
29.47695460995232
30
0
10
-21.911283101814433
20
29.51468673027407
30
0
10
-21.73784149767649
20
29.546394001840856
30
0
10
-21.569365128616653
20
29.572947781715012
30
0
10
-21.406144496270514
20
29.595166521389594
30
0
10
-21.248440565801186
20
29.61380995366642
30
0
10
-21.096503157390156
20
29.629576670448625
30
0
10
-20.95058452490116
20
29.643103419072656
30
0
10
-20.810948576766535
20
29.654964883349333
30
0
10
-20.677876228464594
20
29.665673103548283
30
0
10
-20.551667280266045
20
29.675676010699892
30
0
10
-20.432639043802237
20
29.685354814937437
30
0
10
-20.321121736205804
20
29.69502021918411
30
0
10
-20.21745045215632
20
29.704907658240217
30
0
10
-20.12195334305294
20
29.71517201976095
30
0
10
-20.034935518131633
20
29.72588261357015
30
0
10
-19.95665818998251
20
29.737019532648524
30
0
10
-19.88731279157547
20
29.748472981541415
30
0
10
-19.82699028342947
20
29.76004758173347
30
0
10
-19.775646732180657
20
29.771473981381643
30
0
10
-19.73306750995507
20
29.782430104422616
30
0
10
-19.69883405222684
20
29.79257381241307
30
0
10
-19.672298733617296
20
29.80158736177197
30
0
10
-19.65257454014479
20
29.80923169457011
30
0
10
-19.638546105883382
20
29.815405503455256
30
0
10
-19.628906661336554
20
29.820200846909756
30
0
10
-19.622221281638637
20
29.823945005866502
30
0
10
-19.61701115305292
20
29.827218521586182
30
0
10
-19.611847971944474
20
29.830842657886475
30
0
10
-19.605444097839523
20
29.835835455917753
30
0
10
-19.596724265787135
20
29.84334239562204
30
0
10
-19.58486870841816
20
29.854553118031486
30
0
10
-19.56932404648447
20
29.87061785955742
30
0
10
-19.549784984739322
20
29.892575740633895
30
0
10
-19.52615464130813
20
29.921302836284653
30
0
10
-19.49849326864134
20
29.957482816963577
30
0
10
-19.466964432743115
20
30.00159853203178
30
0
10
-19.431785399557974
20
30.053940133254894
30
0
10
-19.393185658946926
20
30.114624310095184
30
0
10
-19.35137502320146
20
30.18361950884097
30
0
10
-19.306520962647824
20
30.260773037559726
30
0
10
-19.258733829836192
20
30.345837203814078
30
0
10
-19.20805822693647
20
30.438492762116468
30
0
10
-19.154468781319387
20
30.538368811854063
30
0
10
-19.09786882765902
20
30.645058856944384
30
0
10
-19.038090820786135
20
30.758133055131417
30
0
10
-18.974897646060885
20
30.87714681077423
30
0
10
-18.907984319784113
20
31.001645863505978
30
0
10
-18.836979875696922
20
31.131167950484976
30
0
10
-18.761449525148905
20
31.265241017045575
30
0
10
-18.680897474304476
20
31.403377859381635
30
0
10
-18.594771096003264
20
31.545067044496207
30
0
10
-18.502467490230952
20
31.68976001456368
30
0
10
-18.403343808025166
20
31.83685450179939
30
0
10
-18.29673300686911
20
31.985674818257177
30
0
10
-18.181966850174337
20
32.135450296116716
30
0
10
-18.05840780087161
20
32.285294151697215
30
0
10
-17.925490784099516
20
32.43418625528617
30
0
10
-17.782774403307073
20
32.580964484754446
30
0
10
-17.629998991323106
20
32.72433010892845
30
0
10
-17.467146028933943
20
32.862872409329114
30
0
10
-17.294490547528387
20
32.99511592615386
30
0
10
-17.112636169316392
20
33.119590036111376
30
0
10
-16.92252264941727
20
33.23491544776775
30
0
10
-16.725399039730366
20
33.33989692261453
30
0
10
-16.52276175047498
20
33.433607998615834
30
0
10
-16.316264340779394
20
33.51545342985966
30
0
10
-16.107612359946952
20
33.585199028995646
30
0
10
-15.898459650016791
20
33.64296551095451
30
0
10
-15.690321182003746
20
33.68919043424654
30
0
10
-15.484512503896418
20
33.72456795590797
30
0
10
-15.282119281904667
20
33.7499784217103
30
0
10
-15.083994450436618
20
33.766418840736044
30
0
10
-14.89077660991753
20
33.774942180200945
30
0
10
-14.702921879525105
20
33.776609630976886
30
0
10
-14.520741929483208
20
33.77245668826727
30
0
10
-14.344442537464815
20
33.76347163381387
30
0
10
-14.174158952313947
20
33.75058385036022
30
0
10
-14.009986087293887
20
33.73465910490544
30
0
10
-13.852002867112189
20
33.71649917685614
30
0
10
-13.70029088341563
20
33.69684369459118
30
0
10
-13.554947945004496
20
33.676372583624875
30
0
10
-13.416097249123322
20
33.65570801451931
30
0
10
-13.283892849502276
20
33.63541512794215
30
0
10
-13.158521932704028
20
33.61600110788882
30
0
10
-13.040204189347339
20
33.597912394217566
30
0
10
-12.929188314610784
20
33.581530004595386
30
0
10
-12.82574541658856
20
33.56716310994446
30
0
10
-12.730158874466067
20
33.55504121336524
30
0
10
-12.642710002967874
20
33.545305554692725
30
0
10
-12.563658795032703
20
33.53800072760433
30
0
10
-12.493219105809036
20
33.5330679607278
30
0
10
-12.431528007001328
20
33.53034204838174
30
0
10
-12.378609790539183
20
33.52955442844696
30
0
10
-12.334336315007901
20
33.530345216796874
30
0
10
-12.298387049274718
20
33.5322868509141
30
0
10
-12.270214065204259
20
33.53492105106374
30
0
10
-12.249018883050919
20
33.53780882468919
30
0
10
-12.233748732975615
20
33.540590232148084
30
0
10
-12.223118640203973
20
33.5430470897194
30
0
10
-12.215662261909904
20
33.545158753103195
30
0
10
-12.209808885977713
20
33.54713996495425
30
0
10
-12.203977775543205
20
33.549451552123685
30
0
10
-12.196676186065456
20
33.55277962074691
30
0
10
-12.186585834309415
20
33.557985573054125
30
0
10
-12.17262513582585
20
33.56603555563114
30
0
10
-12.15398027082278
20
33.577921709982185
30
0
10
-12.130104989250158
20
33.594587799964216
30
0
10
-12.100694776526245
20
33.6168688848863
30
0
10
-12.065644169441603
20
33.645450177979825
30
0
10
-12.024996448421188
20
33.680845745270915
30
0
10
-11.978893370660273
20
33.72339440892463
30
0
10
-11.927530117575001
20
33.7732685136922
30
0
10
-11.87111812232191
20
33.83049088969565
30
0
10
-11.809856454601249
20
33.89495591464284
30
0
10
-11.743911143625596
20
33.966451549880944
30
0
10
-11.67340115294641
20
34.04468023604729
30
0
10
-11.598389517990634
20
34.12927738490983
30
0
10
-11.518878244828885
20
34.21982682180413
30
0
10
-11.434805809141508
20
34.315872924042466
30
0
10
-11.346046397442468
20
34.41692940799059
30
0
10
-11.252410349906977
20
34.52248479498514
30
0
10
-11.15364557697335
20
34.63200458558874
30
0
10
-11.049440029381865
20
34.74493013912495
30
0
10
-10.939425609983875
20
34.860674233717255
30
0
10
-10.823184230101134
20
34.97861331429118
30
0
10
-10.700257026633253
20
35.09807656910985
30
0
10
-10.570158039384337
20
35.21833226045192
30
0
10
-10.432393837582117
20
35.33857222096229
30
0
10
-10.286490571447752
20
35.45789614392159
30
0
10
-10.132029553134545
20
35.57529822266412
30
0
10
-9.968691559116927
20
35.689659715454376
30
0
10
-9.796308444113281
20
35.799751868312626
30
0
10
-9.614918358729119
20
35.9042538990776
30
0
10
-9.42481815041808
20
36.001789908842014
30
0
10
-9.226604082016257
20
36.090986202561126
30
0
10
-9.021190869264624
20
36.17054652041013
30
0
10
-8.809800319200749
20
36.2393377578963
30
0
10
-8.59391512725347
20
36.29647431558251
30
0
10
-8.375200131800629
20
36.34138708529487
30
0
10
-8.155400714690904
20
36.373864613874524
30
0
10
-7.936233551178967
20
36.39405923167297
30
0
10
-7.719286491889279
20
36.402458336853044
30
0
10
-7.50594147882158
20
36.39982807558344
30
0
10
-7.297328318584595
20
36.3871410997959
30
0
10
-7.094310172056379
20
36.365500937625065
30
0
10
-6.8974959598680545
20
36.3360732794528
30
0
10
-6.707271729147438
20
36.300030589748786
30
0
10
-6.523842423046802
20
36.25851242260708
30
0
10
-6.347276711683184
20
36.2126006772851
30
0
10
-6.17754962499174
20
36.16330715931026
30
0
10
-6.014579888903944
20
36.11157009850883
30
0
10
-5.858260645077905
20
36.05825636773908
30
0
10
-5.708483466645148
20
36.00416666979137
30
0
10
-5.565156295391492
20
35.95004162456019
30
0
10
-5.428216233716955
20
35.8965673166683
30
0
10
-5.297638157138193
20
35.84437937297474
30
0
10
-5.173439978531154
20
35.79406501136872
30
0
10
-5.055685170197245
20
35.746162753982624
30
0
10
-4.944482881164575
20
35.70115966275279
30
0
10
-4.839985700830395
20
35.659486072224205
30
0
10
-4.742384830860849
20
35.62150790427731
30
0
10
-4.651902148811961
20
35.5875167931774
30
0
10
-4.568778401768646
20
35.557718467879376
30
0
10
-4.493256598041743
20
35.53222016921238
30
0
10
-4.425559639390296
20
35.51101834735404
30
0
10
-4.365861457624188
20
35.49398848501495
30
0
10
-4.314251514762881
20
35.480879562400624
30
0
10
-4.270693615747167
20
35.47131627088717
30
0
10
-4.234981615898283
20
35.46481233189887
30
0
10
-4.206696659495057
20
35.460797829440125
30
0
10
-4.185172661415421
20
35.45866196069069
30
0
10
-4.169478122422697
20
35.45780987852737
30
0
10
-4.158422137377911
20
35.457728609185494
30
0
10
-4.150589864015609
20
35.45805325351366
30
0
10
-4.144407696131628
20
35.45862220248691
30
0
10
-4.138231930466052
20
35.45951029723221
30
0
10
-4.130448804767593
20
35.46103235787203
30
0
10
-4.119570604339952
20
35.463715580415126
30
0
10
-4.1043133988194755
20
35.468246023875956
30
0
10
-4.083646580483272
20
35.475399491901726
30
0
10
-4.056810965779091
20
35.485969020604784
30
0
10
-4.023308499700932
20
35.50069978109778
30
0
10
-3.9828708251192046
20
35.52023858112412
30
0
10
-3.93541553404201
20
35.54510088236869
30
0
10
-3.880998223768893
20
35.57565464613535
30
0
10
-3.8197664793302097
20
35.612118033594484
30
0
10
-3.75191953739239
20
35.654567047164434
30
0
10
-3.6776753023711697
20
35.702949266739786
30
0
10
-3.597244876974199
20
35.75710046756004
30
0
10
-3.510813866166086
20
35.81676173492313
30
0
10
-3.4185293045580334
20
35.88159547651451
30
0
10
-3.3204909902069626
20
35.95119936127597
30
0
10
-3.216746146159803
20
36.025117656302776
30
0
10
-3.1072865756398382
20
36.10284971030054
30
0
10
-2.9920477667046246
20
36.1838554844322
30
0
10
-2.870909706531323
20
36.26755810491418
30
0
10
-2.7436994721992227
20
36.35334345137407
30
0
10
-2.6101959703038737
20
36.44055684387249
30
0
10
-2.4701374967325913
20
36.528496992599415
30
0
10
-2.32323306364296
20
36.61640757164272
30
0
10
-2.169178654048371
20
36.7034671149975
30
0
10
-2.007679643604395
20
36.7887784427441
30
0
10
-1.8384804628758724
20
36.87135951362148
30
0
10
-1.6614020155948328
20
36.95013841405184
30
0
10
-1.4763862677941737
20
37.02395598232716
30
0
10
-1.2835456897477107
20
37.09158004885761
30
0
10
-1.0832129495026246
20
37.15173504217337
30
0
10
-0.8759838044718529
20
37.20314932040533
30
0
10
-0.6627442676554187
20
37.24461975775298
30
0
10
-0.44467286104303627
20
37.27508901632619
30
0
10
-0.22321104484236204
20
37.293726427327854
30
0
10
-2.6899433515641757e-14
20
37.3
30
0
0
CIRCLE
5
1C
330
C
100
AcDbEntity
8
0
100
AcDbCircle
10
0
20
0
30
0
40
35.38
0
CIRCLE
5
1D
330
C
100
AcDbEntity
8
0
100
AcDbCircle
10
0
20
0
30
0
40
33.62
0
LINE
5
1E
330
C
100
AcDbEntity
8
0
100
AcDbLine
10
-6
20
0
30
0
11
6
21
0
31
0
0
LINE
5
1F
330
C
100
AcDbEntity
8
0
100
AcDbLine
10
-3
20
0.8
30
0
11
3
21
0.8
31
0
0
CIRCLE
5
20
330
C
100
AcDbEntity
8
0
100
AcDbCircle
10
0
20
0.8
30
0
40
32.5
0
CIRCLE
5
21
330
C
100
AcDbEntity
8
0
100
AcDbCircle
10
-2.079583645146951
20
34.379616025060585
30
0
40
2
0
CIRCLE
5
22
330
C
100
AcDbEntity
8
0
100
AcDbCircle
10
6.243174490455165
20
34.06790060256807
30
0
40
2
0
CIRCLE
5
23
330
C
100
AcDbEntity
8
0
100
AcDbCircle
10
14.290826843536985
20
31.752914686335522
30
0
40
2
0
CIRCLE
5
24
330
C
100
AcDbEntity
8
0
100
AcDbCircle
10
21.57752992154543
20
27.541682053921193
30
0
40
2
0
CIRCLE
5
25
330
C
100
AcDbEntity
8
0
100
AcDbCircle
10
27.65077916986309
20
21.663002053530025
30
0
40
2
0
CIRCLE
5
26
330
C
100
AcDbEntity
8
0
100
AcDbCircle
10
32.12436902954987
20
14.458004872753948
30
0
40
2
0
CIRCLE
5
27
330
C
100
AcDbEntity
8
0
100
AcDbCircle
10
34.70859684804218
20
6.360586434987277
30
0
40
2
0
CIRCLE
5
28
330
C
100
AcDbEntity
8
0
100
AcDbCircle
10
35.23410641810157
20
-2.1312707915364797
30
0
40
2
0
CIRCLE
5
29
330
C
100
AcDbEntity
8
0
100
AcDbCircle
10
33.66627965883751
20
-10.490837020327978
30
0
40
2
0
CIRCLE
5
2A
330
C
100
AcDbEntity
8
0
100
AcDbCircle
10
30.108218658328934
20
-18.201052691412666
30
0
40
2
0
CIRCLE
5
2B
330
C
100
AcDbEntity
8
0
100
AcDbCircle
10
24.79190439469621
20
-24.791904394696207
30
0
40
2
0
CIRCLE
5
2C
330
C
100
AcDbEntity
8
0
100
AcDbCircle
10
18.058750740376144
20
-29.872822479330054
30
0
40
2
0
CIRCLE
5
2D
330
C
100
AcDbEntity
8
0
100
AcDbCircle
10
10.332146288235347
20
-33.15702319478758
30
0
40
2
0
CIRCLE
5
2E
330
C
100
AcDbEntity
8
0
100
AcDbCircle
10
2.0854165458685023
20
-34.47604536926484
30
0
40
2
0
CIRCLE
5
2F
330
C
100
AcDbEntity
8
0
100
AcDbCircle
10
-6.191187484603482
20
-33.78421669293405
30
0
40
2
0
CIRCLE
5
30
330
C
100
AcDbEntity
8
0
100
AcDbCircle
10
-14.021324970129607
20
-31.154106087798663
30
0
40
2
0
CIRCLE
5
31
330
C
100
AcDbEntity
8
0
100
AcDbCircle
10
-20.96898245297546
20
-26.764928599980365
30
0
40
2
0
CIRCLE
5
32
330
C
100
AcDbEntity
8
0
100
AcDbCircle
10
-26.65932663843305
20
-20.886248599589184
30
0
40
2
0
CIRCLE
5
33
330
C
100
AcDbEntity
8
0
100
AcDbCircle
10
-30.793870902957227
20
-13.85919627421707
30
0
40
2
0
CIRCLE
5
34
330
C
100
AcDbEntity
8
0
100
AcDbCircle
10
-33.16058385389385
20
-6.07690252535326
30
0
40
2
0
CIRCLE
5
35
330
C
100
AcDbEntity
8
0
100
AcDbCircle
10
-33.639939318823124
20
2.0348414473322394
30
0
40
2
0
CIRCLE
5
36
330
C
100
AcDbEntity
8
0
100
AcDbCircle
10
-32.20789256612258
20
10.036385222943064
30
0
40
2
0
CIRCLE
5
37
330
C
100
AcDbEntity
8
0
100
AcDbCircle
10
-28.936440120693916
20
17.49268787089008
30
0
40
2
0
CIRCLE
5
38
330
C
100
AcDbEntity
8
0
100
AcDbCircle
10
-23.99190439469621
20
23.9919043946962
30
0
40
2
0
CIRCLE
5
39
330
C
100
AcDbEntity
8
0
100
AcDbCircle
10
-17.630529278011124
20
29.164457658807507
30
0
40
2
0
CIRCLE
5
3A
330
C
100
AcDbEntity
8
0
100
AcDbCircle
10
-10.190533380950267
20
32.702571397402664
30
0
40
2
0
CIRCLE
5
3B
330
C
100
AcDbEntity
8
0
100
AcDbCircle
10
0
20
0
30
0
40
42.895
0
ENDSEC
0
SECTION
2
OBJECTS
0
DICTIONARY
5
A
330
0
100
AcDbDictionary
281
1
3
ACAD_GROUP
350
B
0
DICTIONARY
5
B
330
A
100
AcDbDictionary
281
0
0
ENDSEC
0
EOF